<?xml version="1.0" encoding="UTF-8" standalone="no"?>
<!-- Created with Inkscape (http://www.inkscape.org/) -->

<svg
   width="210mm"
   height="297mm"
   viewBox="0 0 210 297"
   version="1.1"
   id="svg5"
   xml:space="preserve"
   sodipodi:docname="comet.svg"
   inkscape:version="1.2.2 (1:1.2.2+202305151914+b0a8486541)"
   xmlns:inkscape="http://www.inkscape.org/namespaces/inkscape"
   xmlns:sodipodi="http://sodipodi.sourceforge.net/DTD/sodipodi-0.dtd"
   xmlns:xlink="http://www.w3.org/1999/xlink"
   xmlns="http://www.w3.org/2000/svg"
   xmlns:svg="http://www.w3.org/2000/svg"><sodipodi:namedview
     id="namedview7"
     pagecolor="#ffffff"
     bordercolor="#000000"
     borderopacity="0.25"
     inkscape:showpageshadow="2"
     inkscape:pageopacity="0.0"
     inkscape:pagecheckerboard="0"
     inkscape:deskcolor="#d1d1d1"
     inkscape:document-units="mm"
     showgrid="false"
     inkscape:zoom="0.86412738"
     inkscape:cx="23.723354"
     inkscape:cy="-43.39638"
     inkscape:window-width="1846"
     inkscape:window-height="1136"
     inkscape:window-x="74"
     inkscape:window-y="27"
     inkscape:window-maximized="1"
     inkscape:current-layer="svg5"><inkscape:page
       x="0"
       y="0"
       width="210"
       height="297"
       id="page6346" /><inkscape:page
       x="220"
       y="0"
       width="86.606949"
       height="35.055531"
       id="page6348" /></sodipodi:namedview><defs
     id="defs2"><linearGradient
       inkscape:collect="always"
       id="linearGradient8770"><stop
         style="stop-color:#b3b3b3;stop-opacity:1;"
         offset="0"
         id="stop8766" /><stop
         style="stop-color:#b3b3b3;stop-opacity:0;"
         offset="1"
         id="stop8768" /></linearGradient><marker
       style="overflow:visible"
       id="Arrow1L"
       refX="0"
       refY="0"
       orient="auto-start-reverse"
       inkscape:stockid="Arrow1L"
       markerWidth="61.693501"
       markerHeight="11.217"
       viewBox="0 0 8.75 5"
       inkscape:isstock="true"
       inkscape:collect="always"
       preserveAspectRatio="xMidYMid"><path
         style="fill:context-stroke;fill-rule:evenodd;stroke:none"
         d="M 0,0 5,-5 -12.5,0 5,5 Z"
         id="arrow1L"
         transform="scale(-0.5)" /></marker><linearGradient
       inkscape:collect="always"
       xlink:href="#linearGradient8770"
       id="linearGradient8772"
       x1="-177.37515"
       y1="52.17673"
       x2="-117.88091"
       y2="52.17673"
       gradientUnits="userSpaceOnUse"
       gradientTransform="scale(-1,1)" /></defs><g
     inkscape:label="Layer 1"
     inkscape:groupmode="layer"
     id="layer1"><rect
       style="fill:#cccccc;stroke:none;stroke-width:0.197471"
       id="rect2242"
       width="32.133667"
       height="34.011078"
       x="14.255157"
       y="60.503319"
       ry="0" /><rect
       style="fill:#ffffff;stroke:#000000;stroke-width:0.197471"
       id="rect1514"
       width="13.065898"
       height="16.102142"
       x="23.789038"
       y="69.457787"
       ry="2.1901078" /><ellipse
       style="fill:none;stroke:#800000;stroke-width:0.197471;stroke-dasharray:0.592412, 0.197471;stroke-dashoffset:0"
       id="path2503"
       cx="36.201904"
       cy="70.369186"
       rx="3.1236343"
       ry="2.9764514" /><path
       id="path3455"
       style="fill:#ffffff;fill-opacity:1;stroke:none;stroke-width:0.343958;stroke-dasharray:1.03188, 0.343958;stroke-dashoffset:0"
       d="m 75.208409,94.110019 v -4.94285 c 0,-0.183738 -0.0048,-0.366381 -0.01395,-0.547771 -0.0091,-0.181389 -0.02278,-0.361713 -0.04083,-0.540535 -0.01805,-0.178823 -0.04043,-0.356231 -0.06718,-0.532267 -0.02675,-0.176037 -0.05779,-0.350968 -0.09301,-0.523999 -0.03523,-0.173032 -0.07434,-0.344373 -0.11783,-0.514181 -0.04348,-0.169807 -0.0911,-0.337997 -0.14262,-0.504362 -0.05153,-0.166364 -0.10705,-0.330807 -0.1664,-0.49351 -0.05935,-0.162703 -0.1227,-0.323319 -0.18965,-0.482141 -0.06696,-0.158822 -0.13754,-0.31605 -0.21188,-0.470772 -0.07433,-0.154722 -0.15259,-0.306933 -0.23409,-0.457337 -0.0815,-0.150403 -0.16632,-0.298551 -0.25477,-0.444417 -0.08844,-0.145866 -0.18026,-0.289872 -0.27543,-0.430981 -0.09518,-0.14111 -0.19391,-0.279345 -0.29559,-0.415479 -0.10168,-0.136134 -0.20622,-0.270069 -0.31419,-0.401009 -0.10798,-0.13094 -0.21927,-0.258947 -0.33332,-0.384473 -0.11404,-0.125526 -0.23099,-0.248559 -0.35088,-0.368453 -0.11989,-0.119893 -0.24241,-0.23684 -0.36794,-0.350883 -0.12552,-0.114042 -0.25405,-0.22534 -0.38499,-0.333313 -0.13094,-0.107972 -0.26435,-0.212509 -0.40049,-0.314192 -0.13613,-0.101683 -0.27488,-0.200414 -0.41599,-0.29559 -0.14111,-0.09517 -0.2846,-0.186987 -0.43047,-0.275435 -0.14586,-0.08845 -0.29401,-0.173263 -0.44442,-0.254765 -0.1504,-0.0815 -0.30313,-0.159757 -0.45785,-0.234094 -0.15472,-0.07434 -0.31143,-0.14492 -0.47025,-0.211873 -0.15883,-0.06695 -0.31996,-0.130303 -0.48266,-0.189653 -0.1627,-0.05935 -0.32715,-0.114869 -0.49351,-0.166398 -0.16637,-0.05153 -0.33456,-0.09862 -0.50436,-0.14211 -0.16981,-0.04349 -0.34115,-0.08311 -0.51418,-0.118339 -0.17304,-0.03523 -0.34797,-0.06627 -0.524,-0.09302 -0.17604,-0.02675 -0.35345,-0.04913 -0.53227,-0.06718 -0.17882,-0.01805 -0.35863,-0.03169 -0.54002,-0.04082 -0.18139,-0.0091 -0.36403,-0.01395 -0.54777,-0.01395 h -4.94388 l -0.01551,15.608866 z" /><path
       id="path3672"
       style="fill:#cccccc;fill-opacity:1;stroke:none;stroke-width:0.343958;stroke-dasharray:1.03188, 0.343958;stroke-dashoffset:0"
       d="m 70.564249,58.730783 c -3.63331,-0.02713 -7.4153,1.675034 -10.89546,2.476335 l 33.47186,32.841406 c 3.55596,-4.025347 1.25846,-12.588658 0.48782,-16.558162 -2.41164,-4.717535 1.94774,-12.233251 -0.90278,-16.499768 -5.70735,1.130715 -11.85364,1.421866 -17.34158,-0.903821 -1.54769,-0.974095 -3.16836,-1.343659 -4.81986,-1.35599 z m -10.89546,2.476335 -0.017,17.346745 h 4.94388 c 0.18374,0 0.36638,0.0048 0.54777,0.01395 0.18139,0.0091 0.3612,0.02277 0.54002,0.04082 0.17882,0.01805 0.35623,0.04043 0.53227,0.06718 0.17603,0.02675 0.35096,0.05779 0.524,0.09302 0.17303,0.03523 0.34437,0.07485 0.51418,0.118339 0.1698,0.04349 0.33799,0.09058 0.50436,0.14211 0.16636,0.05153 0.33081,0.107048 0.49351,0.166398 0.1627,0.05935 0.32383,0.1227 0.48266,0.189653 0.15882,0.06695 0.31553,0.137536 0.47025,0.211873 0.15472,0.07434 0.30745,0.152592 0.45785,0.234094 0.15041,0.0815 0.29856,0.166317 0.44442,0.254765 0.14587,0.08845 0.28936,0.18026 0.43047,0.275435 0.14111,0.09518 0.27986,0.193907 0.41599,0.29559 0.13614,0.101683 0.26955,0.20622 0.40049,0.314192 0.13094,0.107973 0.25947,0.219271 0.38499,0.333313 0.12553,0.114043 0.24805,0.23099 0.36794,0.350883 0.11989,0.119894 0.23684,0.242927 0.35088,0.368453 0.11405,0.125526 0.22534,0.253533 0.33332,0.384473 0.10797,0.13094 0.21251,0.264875 0.31419,0.401009 0.10168,0.136134 0.20041,0.274369 0.29559,0.415479 0.0952,0.141109 0.18699,0.285115 0.27543,0.430981 0.0884,0.145866 0.17327,0.294014 0.25477,0.444417 0.0815,0.150404 0.15976,0.302615 0.23409,0.457337 0.0743,0.154722 0.14492,0.31195 0.21188,0.470772 0.0669,0.158822 0.1303,0.319438 0.18965,0.482141 0.0593,0.162703 0.11487,0.327146 0.1664,0.49351 0.0515,0.166365 0.0991,0.334555 0.14262,0.504362 0.0435,0.169808 0.0826,0.341149 0.11783,0.514181 0.0352,0.173031 0.0663,0.347962 0.093,0.523999 0.0267,0.176036 0.0491,0.353444 0.0672,0.532267 0.018,0.178822 0.0317,0.359146 0.0408,0.540535 0.009,0.18139 0.0139,0.364033 0.0139,0.547771 v 4.94285 l 17.93224,-0.06098 z" /><path
       id="path3802"
       style="fill:#ffffff;fill-opacity:1;stroke:#000000;stroke-width:0.343958;stroke-dasharray:none;stroke-dashoffset:0"
       d="m 65.683409,78.60864 c 6.00658,0.171974 9.34206,5.656244 9.40304,8.937956 0.061,3.281712 0.061,3.281712 0.061,3.281712 m -15.49571,-12.274445 6.03167,0.05478 m 9.525,15.501376 -0.12196,-6.563423" /><circle
       style="fill:#ffffff;fill-opacity:1;stroke:#000000;stroke-width:0.144;stroke-dasharray:none;stroke-dashoffset:0"
       id="path3805"
       cx="62.248901"
       cy="73.328857"
       r="1.0749562" /><circle
       style="fill:#ffffff;fill-opacity:1;stroke:#000000;stroke-width:0.144;stroke-dasharray:none;stroke-dashoffset:0"
       id="circle3807"
       cx="67.103104"
       cy="73.613976"
       r="1.0749562" /><circle
       style="fill:#ffffff;fill-opacity:1;stroke:#000000;stroke-width:0.144;stroke-dasharray:none;stroke-dashoffset:0"
       id="circle3809"
       cx="71.957306"
       cy="74.642342"
       r="1.0749562" /><circle
       style="fill:#ffffff;fill-opacity:1;stroke:#000000;stroke-width:0.144;stroke-dasharray:none;stroke-dashoffset:0"
       id="circle3811"
       cx="75.983032"
       cy="77.234932"
       r="1.0749562" /><circle
       style="fill:#ffffff;fill-opacity:1;stroke:#000000;stroke-width:0.144;stroke-dasharray:none;stroke-dashoffset:0"
       id="circle3813"
       cx="78.695663"
       cy="80.930328"
       r="1.0749562" /><circle
       style="fill:#ffffff;fill-opacity:1;stroke:#000000;stroke-width:0.144;stroke-dasharray:none;stroke-dashoffset:0"
       id="circle3815"
       cx="79.962616"
       cy="85.549759"
       r="1.0749562" /><circle
       style="fill:#ffffff;fill-opacity:1;stroke:#000000;stroke-width:0.144;stroke-dasharray:none;stroke-dashoffset:0"
       id="circle3817"
       cx="80.185684"
       cy="89.876564"
       r="1.0749562" /><circle
       style="fill:#ffffff;fill-opacity:1;stroke:#000000;stroke-width:0.144;stroke-dasharray:none;stroke-dashoffset:0"
       id="circle4550"
       cx="64.809189"
       cy="70.260841"
       r="1.0749562" /><circle
       style="fill:#ffffff;fill-opacity:1;stroke:#000000;stroke-width:0.144;stroke-dasharray:none;stroke-dashoffset:0"
       id="circle4552"
       cx="70.249313"
       cy="71.034943"
       r="1.0749562" /><circle
       style="fill:#ffffff;fill-opacity:1;stroke:#000000;stroke-width:0.144;stroke-dasharray:none;stroke-dashoffset:0"
       id="circle4554"
       cx="75.682251"
       cy="72.853539"
       r="1.0749562" /><circle
       style="fill:#ffffff;fill-opacity:1;stroke:#000000;stroke-width:0.144;stroke-dasharray:none;stroke-dashoffset:0"
       id="circle4556"
       cx="80.007782"
       cy="77.234932"
       r="1.0749562" /><circle
       style="fill:#ffffff;fill-opacity:1;stroke:#000000;stroke-width:0.144;stroke-dasharray:none;stroke-dashoffset:0"
       id="circle4558"
       cx="82.235001"
       cy="82.077286"
       r="1.0749562" /><circle
       style="fill:#ffffff;fill-opacity:1;stroke:#000000;stroke-width:0.144;stroke-dasharray:none;stroke-dashoffset:0"
       id="circle4560"
       cx="83.15889"
       cy="87.843666"
       r="1.0749562" /><circle
       style="fill:#ffffff;fill-opacity:1;stroke:#000000;stroke-width:0.144;stroke-dasharray:none;stroke-dashoffset:0"
       id="circle4562"
       cx="83.381958"
       cy="92.170479"
       r="1.0749562" /></g><g
     id="g6072"
     transform="matrix(0.03527778,0,0,-0.03527778,6.6914574,54.498606)"><path
       d="m 2265.13,965.613 -63.18,26.047 -0.41,0.02 c -15.12,1.406 -28.99,5.527 -42.76,-4.727 -9.92,-7.402 -16.17,-18.633 -24.23,-27.519 -59.98,-76.887 -108.5,-138.586 -147.09,-187.422 -9.24,-11.641 -194.32,-105.293 -202.47,-115.528 -51.71,-65.226 21.66,-63.625 57.2,-62.023 10.81,0.488 18.12,0.977 17.34,-0.418 -10.94,-19.414 295.68,-4.719 362.38,-19.152 l 54.61,353.312 c -1.41,13.301 -4.65,25.926 -11.39,37.41"
       style="fill:#346abc;fill-opacity:1;fill-rule:nonzero;stroke:none"
       id="path6074" /><path
       d="m 2211.11,982.109 0.41,-0.019 57.17,-23.574 c -1.08,2.402 -2.21,4.785 -3.56,7.097 l -63.18,26.047 -0.41,0.02 c -1.99,0.195 -3.99,0.429 -5.96,0.664 5.29,-5.332 10.55,-9.746 15.53,-10.235"
       style="fill:#d12135;fill-opacity:1;fill-rule:nonzero;stroke:none"
       id="path6076" /><path
       d="m 2134.55,959.434 c 0.1,0.113 0.2,0.226 0.3,0.339 -0.1,-0.113 -0.2,-0.226 -0.3,-0.339 m 0.34,0.382 c 0.01,0.012 0.02,0.028 0.04,0.039 -0.02,-0.011 -0.03,-0.027 -0.04,-0.039"
       style="fill:#f1f1f0;fill-opacity:1;fill-rule:nonzero;stroke:none"
       id="path6078" /><path
       d="m 1781.96,627.984 c -4.41,0.2 -8.86,0.403 -13.3,0.602 2.34,7.57 7.51,16.758 16.33,27.898 8.15,10.235 193.23,103.887 202.47,115.528 38.59,48.836 87.11,110.535 147.09,187.422 v 0 c 0.1,0.113 0.2,0.226 0.3,0.339 0.02,0.012 0.03,0.028 0.04,0.043 0.01,0.012 0.02,0.028 0.04,0.039 6.51,7.278 12,15.961 19.22,22.899 -3.08,-13.801 -5.82,-28.254 -10.03,-32.883 -59.96,-76.883 -108.52,-138.601 -147.09,-187.41 -9.24,-11.707 -194.32,-105.305 -202.46,-115.547 -5.61,-7.066 -9.75,-13.348 -12.61,-18.93"
       style="fill:#a4c7e2;fill-opacity:1;fill-rule:nonzero;stroke:none"
       id="path6080" /><path
       d="m 2195.92,992.305 c -0.11,0.011 -0.22,0.023 -0.34,0.039 v 0 c -0.99,0.121 -1.99,0.246 -2.97,0.367 1.1,-0.133 2.2,-0.273 3.31,-0.406"
       style="fill:#346abc;fill-opacity:1;fill-rule:nonzero;stroke:none"
       id="path6082" /><path
       d="m 2222.84,580.93 c -16.87,4.652 -32.54,8.683 -46.62,12.133 10.66,50.332 20.29,101.019 31.29,151.222 13.85,62.883 32.82,126.992 40.59,190.891 4.38,36.25 -45.43,47.226 -71.66,53.379 -4.14,0.996 -8.11,1.504 -12.01,1.777 5.24,2.535 10.52,3.34 15.91,3.34 4.02,0 8.1,-0.449 12.27,-0.961 0.98,-0.121 1.98,-0.246 2.97,-0.367 5.29,-5.332 10.55,-9.746 15.53,-10.235 l 0.41,-0.019 57.17,-23.574 c -1.08,2.402 -2.21,4.785 -3.56,7.097 6.74,-11.484 9.98,-24.109 11.39,-37.41 L 2222.84,580.93"
       style="fill:#273c79;fill-opacity:1;fill-rule:nonzero;stroke:none"
       id="path6084" /><path
       d="m 2268.69,958.516 -57.17,23.574 -0.41,0.019 c -4.98,0.489 -10.24,4.903 -15.53,10.235 v 0 c 0.12,-0.016 0.23,-0.028 0.34,-0.039 1.86,-0.231 3.73,-0.45 5.62,-0.625 l 0.41,-0.02 63.18,-26.047 v 0 c 1.35,-2.312 2.48,-4.695 3.56,-7.097"
       style="fill:#0c0e19;fill-opacity:1;fill-rule:nonzero;stroke:none"
       id="path6086" /><path
       d="m 108.809,481.004 c 242.16,213.664 300.808,199.758 508.035,194.309 207.238,-5.403 798.036,-34.473 1016.476,-41.485 218.59,-6.965 447.22,-22.5 468.26,-24.59 0,0 74.84,-12.929 172.77,-43.418 0,0 42.58,-11.515 61.41,-21.152 17.73,-9.043 7.77,-58.008 -20.04,-79.492 -6.51,-5.02 -80.63,-50.723 -80.63,-50.723 0,0 -37.17,-27.871 -123.79,-56.047 C 2036.79,334.141 1238.61,183.934 406.711,207.898 169.48,214.719 -0.183594,327.109 0,383.836 c 0.214844,54.328 108.809,97.168 108.809,97.168"
       style="fill:#ebebeb;fill-opacity:1;fill-rule:nonzero;stroke:none"
       id="path6088" /><path
       d="m 406.711,207.898 c 89.547,-2.585 178.711,-3.125 266.598,-2.058 71.836,10.508 142.484,28.055 210.863,53.203 100.105,36.836 197.088,81.816 297.848,116.98 116.73,40.696 238.91,65.942 360.2,88.813 121.13,22.809 243.26,40.418 365.84,53.289 123.26,12.988 250.41,21.961 373.71,5.449 20.45,-2.734 41.33,-5 62.09,-7.82 0.72,5.078 0.92,9.879 0.33,14.09 -1.95,0.722 -3.86,1.504 -5.82,2.187 -225.13,78.926 -472.32,73.614 -707.09,54.121 C 1380.39,565.332 1130.99,519.148 886.367,460.293 667.336,407.559 444.816,340.77 217.434,342.234 168.602,342.559 46.5547,344.578 0.566406,390.137 0.234375,388.066 0.0273438,385.945 0,383.836 -0.183594,327.109 169.48,214.719 406.711,207.898"
       style="fill:#346abc;fill-opacity:1;fill-rule:nonzero;stroke:none"
       id="path6090" /><path
       d="m 464.016,508.125 c 11.257,20.125 19.004,41.602 25.996,63.406 1.582,10.813 -0.11,20.918 -10.039,26.418 -19.746,1.367 -41.672,2.578 -65.727,3.535 -6.844,0.332 -13.609,0.559 -19.703,0.743 l -93.93,-121.973 c 32.348,-4.024 65.043,-6.574 95.246,-6.574 32.039,0.293 51.258,4.25 68.157,34.445"
       style="fill:#3c434a;fill-opacity:1;fill-rule:nonzero;stroke:none"
       id="path6092" /><path
       d="m 132.93,498.621 c 0,0 87.898,82.07 115.937,94.047 6.719,3.016 30.399,11.922 133.594,11.004 L 291.543,482.266 c -44.363,4.218 -107.754,9.062 -158.613,16.355"
       style="fill:#3c434a;fill-opacity:1;fill-rule:nonzero;stroke:none"
       id="path6094" /><path
       d="m 487.414,563.574 c 0.879,2.649 1.742,5.301 2.598,7.957 0.328,2.262 0.515,4.489 0.515,6.653 0,-2.164 -0.187,-4.391 -0.515,-6.653 -0.856,-2.656 -1.715,-5.308 -2.598,-7.957"
       style="fill:#8b9194;fill-opacity:1;fill-rule:nonzero;stroke:none"
       id="path6096" /><path
       d="m 478.926,540.066 c -41.496,4.321 -83.028,7.993 -124.688,9.817 l 40.305,52.344 c 6.094,-0.184 12.859,-0.411 19.703,-0.743 24.055,-0.957 45.981,-2.168 65.727,-3.535 7.855,-4.347 10.554,-11.582 10.554,-19.765 0,-2.164 -0.187,-4.391 -0.515,-6.653 -0.856,-2.656 -1.719,-5.308 -2.598,-7.957 -2.633,-7.914 -5.422,-15.761 -8.488,-23.508"
       style="fill:#252a2f;fill-opacity:1;fill-rule:nonzero;stroke:none"
       id="path6098" /><path
       d="m 195.961,554.402 c 17.519,14.649 34.961,28.266 46.754,35.106 l -0.024,-0.02 c -11.789,-6.843 -29.218,-20.449 -46.73,-35.086"
       style="fill:#969b9d;fill-opacity:1;fill-rule:nonzero;stroke:none"
       id="path6100" /><path
       d="m 242.691,589.488 0.024,0.02 c 2.273,1.316 4.336,2.383 6.152,3.16 -1.82,-0.781 -3.89,-1.852 -6.176,-3.18 m 6.375,3.266 c 6.637,2.945 28.856,10.984 118.895,10.984 -90.023,-0.004 -112.258,-8.039 -118.895,-10.984 m 133.395,10.918 c -0.09,0 -0.172,0 -0.258,0.004 0.086,-0.004 0.168,-0.004 0.258,-0.004 m -0.5,0.004 c -0.219,0.004 -0.43,0.004 -0.652,0.008 0.222,-0.004 0.433,-0.004 0.652,-0.008 m -0.719,0.008 c -0.082,0 -0.164,0 -0.246,0 0.082,0 0.164,0 0.246,0 m -13.265,0.054 v 0 0 0"
       style="fill:#8b9194;fill-opacity:1;fill-rule:nonzero;stroke:none"
       id="path6102" /><path
       d="m 150.254,514.48 c 12.047,10.891 28.914,25.883 45.707,39.922 17.512,14.637 34.941,28.243 46.73,35.086 2.286,1.328 4.356,2.399 6.176,3.18 v 0 c 0.067,0.027 0.129,0.055 0.199,0.086 6.637,2.945 28.872,10.98 118.895,10.984 0.004,0 0.008,0 0.016,0 v 0 c 4.191,0 8.531,-0.019 13.019,-0.054 0.082,0 0.164,0 0.246,0 0.028,0 0.043,0 0.067,0 0.222,-0.004 0.433,-0.004 0.652,-0.008 0.078,0 0.164,0 0.242,0 0.086,-0.004 0.168,-0.004 0.258,-0.004 v 0 l -39.91,-53.289 c -12.004,0.418 -24.004,0.742 -36.035,0.797 -2.762,0.015 -5.52,0.027 -8.278,0.027 -30.55,0 -61.011,-1.234 -90.406,-10.203 -20.156,-6.129 -39.031,-16.152 -57.578,-26.524"
       style="fill:#252a2f;fill-opacity:1;fill-rule:nonzero;stroke:none"
       id="path6104" /><path
       d="m 654.844,368.379 69.277,-2.246 c 0.313,-0.031 2.82,-0.52 6.414,-0.52 9.914,0 27.192,3.399 31.528,25.938 6.382,32.922 7.39,140.879 7.402,141.953 0.008,0.422 1.734,29.562 -8.457,40.414 -2.422,2.574 -5.278,3.844 -8.723,3.844 l -0.597,-0.008 -42.364,1.641 -41.824,2.136 c -0.242,0.032 -1.562,0.196 -3.613,0.196 -8.821,0 -24.129,-2.977 -27.41,-22.801 -4.622,-27.824 -7.317,-142.395 -7.344,-143.555 -0.039,-0.48 -2.778,-36.406 25.711,-46.992 z m 75.691,-6.629 c -4.031,0 -6.734,0.504 -6.851,0.516 l -69.868,2.332 c -31.628,11.488 -28.613,50.597 -28.574,50.988 0.09,4.609 2.738,115.898 7.387,143.984 3.914,23.516 23.164,26.063 31.258,26.063 2.453,0 3.984,-0.223 3.984,-0.223 l 41.621,-2.117 42.332,-1.664 0.461,0.043 c 4.524,0 8.418,-1.731 11.582,-5.09 11.328,-12.09 9.578,-41.926 9.485,-43.215 -0.039,-4.336 -1.016,-109.304 -7.454,-142.547 -5.046,-26.25 -26.406,-29.07 -35.363,-29.07"
       style="fill:#989b9e;fill-opacity:1;fill-rule:nonzero;stroke:none"
       id="path6106" /><path
       d="m 893.457,494.227 c -1.047,0 -1.711,0.117 -1.711,0.117 l -18.516,-0.059 -0.347,0.129 c -7.883,2.578 -9.516,11.024 -9.309,15.176 0,1.101 -0.293,30.769 0.723,38.41 0.871,6.492 5.859,8.797 10.246,8.797 l 0.945,-0.047 22.11,-0.238 h 0.047 c 1.906,0 3.39,-0.653 4.582,-1.864 3.543,-3.632 3.386,-11.757 3.347,-12.675 0.039,-1.067 0.715,-29.102 -0.75,-38.157 -0.937,-5.984 -5.183,-9.589 -11.367,-9.589"
       style="fill:#989b9e;fill-opacity:1;fill-rule:nonzero;stroke:none"
       id="path6108" /><path
       d="m 892.395,497.793 c -0.918,0 -1.516,0.105 -1.516,0.105 l -16.238,-0.039 -0.317,0.102 c -6.902,2.281 -8.367,9.707 -8.164,13.336 -0.027,0.969 -0.269,27.023 0.617,33.703 0.743,5.711 5.137,7.742 9.016,7.742 l 0.809,-0.027 19.421,-0.215 h 0.024 c 1.695,0 2.996,-0.598 4.043,-1.652 3.125,-3.18 2.984,-10.321 2.957,-11.121 0.027,-0.93 0.598,-25.547 -0.664,-33.508 -0.867,-5.254 -4.578,-8.426 -9.988,-8.426"
       style="fill:#28405e;fill-opacity:1;fill-rule:nonzero;stroke:none"
       id="path6110" /><path
       d="m 871.16,531.113 h 25.781 c -0.027,2.559 -0.078,4.278 -0.078,4.492 0.024,0.821 0.102,7.879 -2.105,11.036 -0.727,1.054 -1.66,1.629 -2.832,1.629 h -0.031 l -13.758,0.214 -0.586,0.063 c -2.738,0 -5.852,-2.043 -6.391,-7.699 -0.176,-1.961 -0.293,-5.653 -0.347,-9.825 l 0.347,0.09"
       style="fill:#42608b;fill-opacity:1;fill-rule:nonzero;stroke:none"
       id="path6112" /><path
       d="m 957.938,494.227 c -1.051,0 -1.715,0.117 -1.715,0.117 l -18.489,-0.059 -0.379,0.129 c -7.863,2.578 -9.511,11.024 -9.281,15.176 -0.027,1.101 -0.32,30.769 0.696,38.41 0.871,6.492 5.871,8.797 10.253,8.797 l 0.938,-0.047 22.117,-0.238 h 0.039 c 1.906,0 3.403,-0.653 4.594,-1.864 3.543,-3.632 3.387,-11.757 3.367,-12.675 0.02,-1.067 0.692,-29.102 -0.762,-38.157 -0.957,-5.984 -5.207,-9.589 -11.378,-9.589"
       style="fill:#989b9e;fill-opacity:1;fill-rule:nonzero;stroke:none"
       id="path6114" /><path
       d="m 956.863,497.793 c -0.918,0 -1.504,0.105 -1.504,0.105 l -16.238,-0.039 -0.312,0.102 c -6.914,2.281 -8.371,9.707 -8.172,13.336 0,0.969 -0.266,27.023 0.601,33.703 0.766,5.711 5.168,7.742 9.028,7.742 l 0.82,-0.027 19.41,-0.215 h 0.024 c 1.699,0 3.003,-0.598 4.043,-1.652 3.125,-3.18 2.976,-10.321 2.957,-11.121 0.019,-0.93 0.593,-25.547 -0.665,-33.508 -0.839,-5.254 -4.582,-8.426 -9.992,-8.426"
       style="fill:#28405e;fill-opacity:1;fill-rule:nonzero;stroke:none"
       id="path6116" /><path
       d="m 935.637,531.113 h 25.769 c -0.019,2.559 -0.051,4.278 -0.051,4.492 0.024,0.821 0.098,7.879 -2.097,11.036 -0.75,1.054 -1.692,1.629 -2.84,1.629 h -0.039 l -13.774,0.214 -0.562,0.063 c -2.746,0 -5.852,-2.043 -6.379,-7.699 -0.195,-1.961 -0.32,-5.653 -0.383,-9.825 l 0.356,0.09"
       style="fill:#42608b;fill-opacity:1;fill-rule:nonzero;stroke:none"
       id="path6118" /><path
       d="m 1022.41,494.227 c -1.01,0 -1.7,0.117 -1.7,0.117 l -18.49,-0.059 -0.37,0.129 c -7.866,2.578 -9.514,11.024 -9.299,15.176 0,1.101 -0.305,30.769 0.73,38.41 0.828,6.492 5.828,8.797 10.229,8.797 l 0.94,-0.047 22.14,-0.238 h 0.02 c 1.92,0 3.4,-0.653 4.59,-1.864 3.54,-3.632 3.4,-11.757 3.37,-12.675 0.03,-1.067 0.67,-29.102 -0.78,-38.157 -0.94,-5.984 -5.19,-9.589 -11.38,-9.589"
       style="fill:#989b9e;fill-opacity:1;fill-rule:nonzero;stroke:none"
       id="path6120" /><path
       d="m 1021.36,497.793 c -0.94,0 -1.51,0.105 -1.51,0.105 l -16.25,-0.039 -0.31,0.102 c -6.911,2.281 -8.38,9.707 -8.192,13.336 0,0.969 -0.235,27.023 0.644,33.703 0.75,5.711 5.148,7.742 8.998,7.742 l 0.83,-0.027 19.42,-0.215 h 0.04 c 1.66,0 2.98,-0.598 4.02,-1.652 3.11,-3.18 3,-10.321 2.96,-11.121 0.04,-0.93 0.6,-25.547 -0.66,-33.508 -0.84,-5.254 -4.58,-8.426 -9.99,-8.426"
       style="fill:#28405e;fill-opacity:1;fill-rule:nonzero;stroke:none"
       id="path6122" /><path
       d="m 1000.12,531.113 h 25.76 c 0,2.559 -0.05,4.278 -0.05,4.492 0.03,0.821 0.12,7.879 -2.11,11.036 -0.72,1.054 -1.65,1.629 -2.83,1.629 h -0.04 l -13.75,0.214 -0.58,0.063 c -2.74,0 -5.86,-2.043 -6.39,-7.699 -0.189,-1.961 -0.294,-5.653 -0.364,-9.825 l 0.354,0.09"
       style="fill:#42608b;fill-opacity:1;fill-rule:nonzero;stroke:none"
       id="path6124" /><path
       d="m 1086.92,494.227 c -1.05,0 -1.73,0.117 -1.73,0.117 l -18.49,-0.059 -0.38,0.129 c -7.85,2.578 -9.51,11.024 -9.31,15.176 0,1.101 -0.28,30.769 0.73,38.41 0.83,6.492 5.85,8.797 10.26,8.797 l 0.94,-0.047 22.12,-0.238 h 0.02 c 1.92,0 3.41,-0.653 4.59,-1.864 3.56,-3.632 3.4,-11.757 3.37,-12.675 0.03,-1.067 0.72,-29.102 -0.76,-38.157 -0.95,-5.984 -5.2,-9.589 -11.36,-9.589"
       style="fill:#989b9e;fill-opacity:1;fill-rule:nonzero;stroke:none"
       id="path6126" /><path
       d="m 1085.83,497.793 c -0.92,0 -1.5,0.105 -1.5,0.105 l -16.25,-0.039 -0.31,0.102 c -6.91,2.281 -8.39,9.707 -8.17,13.336 0,0.969 -0.26,27.023 0.62,33.703 0.75,5.711 5.14,7.742 9.01,7.742 l 0.81,-0.027 19.42,-0.215 h 0.04 c 1.69,0 2.99,-0.598 4.03,-1.652 3.12,-3.18 2.98,-10.321 2.97,-11.121 0.01,-0.93 0.6,-25.547 -0.65,-33.508 -0.87,-5.254 -4.61,-8.426 -10.02,-8.426"
       style="fill:#28405e;fill-opacity:1;fill-rule:nonzero;stroke:none"
       id="path6128" /><path
       d="m 1064.6,531.113 h 25.78 c -0.03,2.559 -0.06,4.278 -0.06,4.492 0,0.821 0.12,7.879 -2.09,11.036 -0.76,1.054 -1.67,1.629 -2.85,1.629 h -0.02 l -13.79,0.214 -0.56,0.063 c -2.75,0 -5.87,-2.043 -6.41,-7.699 -0.18,-1.961 -0.28,-5.653 -0.34,-9.825 l 0.34,0.09"
       style="fill:#42608b;fill-opacity:1;fill-rule:nonzero;stroke:none"
       id="path6130" /><path
       d="m 1151.39,494.227 c -1.03,0 -1.7,0.117 -1.7,0.117 l -18.5,-0.059 -0.36,0.129 c -7.86,2.578 -9.53,11.024 -9.32,15.176 0,1.101 -0.29,30.769 0.74,38.41 0.83,6.492 5.83,8.797 10.23,8.797 l 0.95,-0.047 22.13,-0.238 h 0.02 c 1.92,0 3.42,-0.653 4.6,-1.864 3.52,-3.632 3.39,-11.757 3.36,-12.675 0.03,-1.067 0.68,-29.102 -0.78,-38.157 -0.94,-5.984 -5.19,-9.589 -11.37,-9.589"
       style="fill:#989b9e;fill-opacity:1;fill-rule:nonzero;stroke:none"
       id="path6132" /><path
       d="m 1150.34,497.793 c -0.94,0 -1.5,0.105 -1.5,0.105 l -16.26,-0.039 -0.29,0.102 c -6.95,2.281 -8.41,9.707 -8.2,13.336 0,0.969 -0.26,27.023 0.63,33.703 0.74,5.711 5.13,7.742 9,7.742 l 0.81,-0.027 19.44,-0.215 h 0.02 c 1.67,0 2.99,-0.598 4.04,-1.652 3.11,-3.18 2.99,-10.321 2.95,-11.121 0.04,-0.93 0.61,-25.547 -0.67,-33.508 -0.83,-5.254 -4.56,-8.426 -9.97,-8.426"
       style="fill:#28405e;fill-opacity:1;fill-rule:nonzero;stroke:none"
       id="path6134" /><path
       d="m 1129.11,531.113 h 25.76 c -0.02,2.559 -0.08,4.278 -0.08,4.492 0.03,0.821 0.15,7.879 -2.08,11.036 -0.73,1.054 -1.67,1.629 -2.86,1.629 h -0.03 l -13.75,0.214 -0.58,0.063 c -2.74,0 -5.85,-2.043 -6.38,-7.699 -0.19,-1.961 -0.31,-5.653 -0.37,-9.825 l 0.37,0.09"
       style="fill:#42608b;fill-opacity:1;fill-rule:nonzero;stroke:none"
       id="path6136" /><path
       d="m 1215.89,494.227 c -1.06,0 -1.71,0.117 -1.71,0.117 l -18.51,-0.059 -0.36,0.129 c -7.88,2.578 -9.54,11.024 -9.32,15.176 0,1.101 -0.3,30.769 0.74,38.41 0.84,6.492 5.84,8.797 10.23,8.797 l 0.95,-0.047 22.12,-0.238 h 0.02 c 1.92,0 3.42,-0.653 4.61,-1.864 3.51,-3.632 3.38,-11.757 3.36,-12.675 0.02,-1.067 0.67,-29.102 -0.76,-38.157 -0.97,-5.984 -5.22,-9.589 -11.37,-9.589"
       style="fill:#989b9e;fill-opacity:1;fill-rule:nonzero;stroke:none"
       id="path6138" /><path
       d="m 1214.8,497.793 c -0.9,0 -1.5,0.105 -1.5,0.105 l -16.25,-0.039 -0.3,0.102 c -6.92,2.281 -8.38,9.707 -8.18,13.336 0,0.969 -0.27,27.023 0.63,33.703 0.73,5.711 5.13,7.742 8.99,7.742 l 0.81,-0.027 19.45,-0.215 h 0.03 c 1.68,0 2.97,-0.598 4.02,-1.652 3.12,-3.18 2.99,-10.321 2.96,-11.121 0.03,-0.93 0.61,-25.547 -0.67,-33.508 -0.83,-5.254 -4.57,-8.426 -9.99,-8.426"
       style="fill:#28405e;fill-opacity:1;fill-rule:nonzero;stroke:none"
       id="path6140" /><path
       d="m 1193.58,531.113 h 25.78 c -0.03,2.559 -0.09,4.278 -0.09,4.492 0.05,0.821 0.14,7.879 -2.08,11.036 -0.73,1.054 -1.66,1.629 -2.84,1.629 h -0.04 l -13.77,0.214 -0.57,0.063 c -2.74,0 -5.86,-2.043 -6.39,-7.699 -0.17,-1.961 -0.27,-5.653 -0.36,-9.825 l 0.36,0.09"
       style="fill:#42608b;fill-opacity:1;fill-rule:nonzero;stroke:none"
       id="path6142" /><path
       d="m 1280.39,494.227 c -1.06,0 -1.74,0.117 -1.74,0.117 l -18.5,-0.059 -0.35,0.129 c -7.89,2.578 -9.54,11.024 -9.32,15.176 0,1.101 -0.29,30.769 0.73,38.41 0.84,6.492 5.84,8.797 10.23,8.797 l 0.94,-0.047 22.13,-0.238 h 0.02 c 1.93,0 3.41,-0.653 4.61,-1.864 3.53,-3.632 3.39,-11.757 3.36,-12.675 0.03,-1.067 0.7,-29.102 -0.77,-38.157 -0.93,-5.984 -5.19,-9.589 -11.34,-9.589"
       style="fill:#989b9e;fill-opacity:1;fill-rule:nonzero;stroke:none"
       id="path6144" /><path
       d="m 1279.29,497.793 c -0.92,0 -1.48,0.105 -1.48,0.105 l -16.27,-0.039 -0.29,0.102 c -6.92,2.281 -8.4,9.707 -8.19,13.336 -0.02,0.969 -0.27,27.023 0.63,33.703 0.76,5.711 5.15,7.742 9,7.742 l 0.82,-0.027 19.43,-0.215 h 0.02 c 1.68,0 2.99,-0.598 4.05,-1.652 3.1,-3.18 2.95,-10.321 2.95,-11.121 0,-0.93 0.58,-25.547 -0.67,-33.508 -0.86,-5.254 -4.57,-8.426 -10,-8.426"
       style="fill:#28405e;fill-opacity:1;fill-rule:nonzero;stroke:none"
       id="path6146" /><path
       d="m 1258.08,531.113 h 25.76 c -0.04,2.559 -0.08,4.278 -0.08,4.492 0.04,0.821 0.14,7.879 -2.09,11.036 -0.74,1.054 -1.67,1.629 -2.85,1.629 h -0.04 l -13.75,0.214 -0.58,0.063 c -2.74,0 -5.84,-2.043 -6.37,-7.699 -0.17,-1.961 -0.29,-5.653 -0.37,-9.825 l 0.37,0.09"
       style="fill:#42608b;fill-opacity:1;fill-rule:nonzero;stroke:none"
       id="path6148" /><path
       d="m 1344.86,494.227 c -1.06,0 -1.74,0.117 -1.74,0.117 l -18.48,-0.059 -0.37,0.129 c -7.87,2.578 -9.53,11.024 -9.31,15.176 0,1.101 -0.3,30.769 0.72,38.41 0.86,6.492 5.88,8.797 10.23,8.797 l 0.94,-0.047 22.13,-0.238 h 0.04 c 1.91,0 3.42,-0.653 4.61,-1.864 3.51,-3.632 3.4,-11.757 3.34,-12.675 0.06,-1.067 0.7,-29.102 -0.76,-38.157 -0.94,-5.984 -5.2,-9.589 -11.35,-9.589"
       style="fill:#989b9e;fill-opacity:1;fill-rule:nonzero;stroke:none"
       id="path6150" /><path
       d="m 1343.76,497.793 -1.48,0.105 -16.25,-0.039 -0.31,0.102 c -6.92,2.281 -8.38,9.707 -8.19,13.336 0,0.969 -0.23,27.023 0.63,33.703 0.76,5.711 5.16,7.742 9.02,7.742 l 0.8,-0.027 19.44,-0.215 h 0.02 c 1.7,0 3,-0.598 4.02,-1.652 3.12,-3.18 3.01,-10.321 2.97,-11.121 0.04,-0.93 0.58,-25.547 -0.68,-33.508 -0.84,-5.254 -4.58,-8.426 -9.99,-8.426"
       style="fill:#28405e;fill-opacity:1;fill-rule:nonzero;stroke:none"
       id="path6152" /><path
       d="m 1322.55,531.113 h 25.77 c -0.02,2.559 -0.06,4.278 -0.06,4.492 0.02,0.821 0.11,7.879 -2.11,11.036 -0.73,1.054 -1.68,1.629 -2.83,1.629 h -0.02 l -13.79,0.214 -0.57,0.063 c -2.75,0 -5.86,-2.043 -6.39,-7.699 -0.17,-1.961 -0.29,-5.653 -0.35,-9.825 l 0.35,0.09"
       style="fill:#42608b;fill-opacity:1;fill-rule:nonzero;stroke:none"
       id="path6154" /><path
       d="m 1409.33,494.227 c -1.03,0 -1.7,0.117 -1.7,0.117 l -18.51,-0.059 -0.36,0.129 c -7.87,2.578 -9.53,11.024 -9.31,15.176 0,1.101 -0.29,30.769 0.72,38.41 0.84,6.492 5.86,8.797 10.25,8.797 l 0.92,-0.047 22.13,-0.238 h 0.06 c 1.89,0 3.38,-0.653 4.57,-1.864 3.54,-3.632 3.4,-11.757 3.36,-12.675 0.04,-1.067 0.7,-29.102 -0.74,-38.157 -0.96,-5.984 -5.2,-9.589 -11.39,-9.589"
       style="fill:#989b9e;fill-opacity:1;fill-rule:nonzero;stroke:none"
       id="path6156" /><path
       d="m 1408.28,497.793 c -0.94,0 -1.53,0.105 -1.53,0.105 l -16.25,-0.039 -0.29,0.102 c -6.93,2.281 -8.38,9.707 -8.18,13.336 0,0.969 -0.26,27.023 0.64,33.703 0.74,5.711 5.14,7.742 8.99,7.742 l 0.82,-0.027 19.43,-0.215 h 0.02 c 1.68,0 2.99,-0.598 4.02,-1.652 3.11,-3.18 2.99,-10.321 2.97,-11.121 0.02,-0.93 0.61,-25.547 -0.66,-33.508 -0.84,-5.254 -4.57,-8.426 -9.98,-8.426"
       style="fill:#28405e;fill-opacity:1;fill-rule:nonzero;stroke:none"
       id="path6158" /><path
       d="m 1387.03,531.113 h 25.76 c 0,2.559 -0.04,4.278 -0.04,4.492 0.02,0.821 0.1,7.879 -2.11,11.036 -0.72,1.054 -1.68,1.629 -2.85,1.629 h -0.02 l -13.75,0.214 -0.59,0.063 c -2.73,0 -5.84,-2.043 -6.38,-7.699 -0.2,-1.961 -0.3,-5.653 -0.39,-9.825 l 0.37,0.09"
       style="fill:#42608b;fill-opacity:1;fill-rule:nonzero;stroke:none"
       id="path6160" /><path
       d="m 1473.82,494.227 c -1.05,0 -1.72,0.121 -1.72,0.121 l -18.49,-0.063 -0.37,0.129 c -7.85,2.578 -9.53,11.024 -9.32,15.176 0,1.101 -0.29,30.769 0.72,38.406 0.84,6.496 5.86,8.801 10.26,8.801 l 0.95,-0.047 22.11,-0.238 h 0.04 c 1.9,0 3.4,-0.653 4.59,-1.864 3.52,-3.632 3.4,-11.757 3.38,-12.675 0.02,-1.067 0.67,-29.102 -0.76,-38.157 -0.98,-5.984 -5.23,-9.589 -11.39,-9.589"
       style="fill:#989b9e;fill-opacity:1;fill-rule:nonzero;stroke:none"
       id="path6162" /><path
       d="m 1472.75,497.793 c -0.94,0 -1.5,0.105 -1.5,0.105 l -16.27,-0.039 -0.3,0.102 c -6.91,2.281 -8.4,9.707 -8.18,13.336 0,0.969 -0.27,27.023 0.64,33.703 0.75,5.711 5.14,7.742 8.99,7.742 l 0.82,-0.027 19.43,-0.215 h 0.02 c 1.68,0 2.99,-0.598 4.04,-1.652 3.11,-3.18 2.99,-10.321 2.97,-11.121 0.02,-0.93 0.59,-25.547 -0.68,-33.508 -0.84,-5.254 -4.57,-8.426 -9.98,-8.426"
       style="fill:#28405e;fill-opacity:1;fill-rule:nonzero;stroke:none"
       id="path6164" /><path
       d="m 1451.52,531.113 h 25.78 c -0.04,2.559 -0.08,4.278 -0.08,4.492 0.02,0.821 0.12,7.879 -2.11,11.036 -0.72,1.054 -1.64,1.629 -2.83,1.629 h -0.06 l -13.73,0.214 -0.58,0.063 c -2.74,0 -5.84,-2.043 -6.39,-7.699 -0.18,-1.961 -0.27,-5.653 -0.35,-9.825 l 0.35,0.09"
       style="fill:#42608b;fill-opacity:1;fill-rule:nonzero;stroke:none"
       id="path6166" /><path
       d="m 1538.3,494.227 c -1.06,0 -1.72,0.121 -1.72,0.121 l -18.5,-0.063 -0.35,0.129 c -7.87,2.578 -9.53,11.024 -9.3,15.176 -0.04,1.101 -0.31,30.769 0.69,38.406 0.86,6.496 5.87,8.801 10.25,8.801 l 0.96,-0.047 22.11,-0.238 h 0.04 c 1.91,0 3.39,-0.653 4.59,-1.864 3.55,-3.632 3.39,-11.757 3.35,-12.675 0.04,-1.067 0.71,-29.102 -0.74,-38.157 -0.95,-5.984 -5.23,-9.589 -11.38,-9.589"
       style="fill:#989b9e;fill-opacity:1;fill-rule:nonzero;stroke:none"
       id="path6168" /><path
       d="m 1537.22,497.793 c -0.92,0 -1.52,0.105 -1.52,0.105 l -16.21,-0.039 -0.33,0.102 c -6.92,2.281 -8.36,9.707 -8.17,13.336 -0.02,0.969 -0.25,27.023 0.61,33.703 0.76,5.711 5.15,7.742 9.02,7.742 l 0.82,-0.027 19.41,-0.215 h 0.06 c 1.68,0 2.97,-0.598 4.03,-1.652 3.08,-3.18 2.97,-10.321 2.95,-11.121 0.02,-0.93 0.58,-25.547 -0.67,-33.508 -0.86,-5.254 -4.61,-8.426 -10,-8.426"
       style="fill:#28405e;fill-opacity:1;fill-rule:nonzero;stroke:none"
       id="path6170" /><path
       d="m 1515.99,531.113 h 25.78 c -0.04,2.559 -0.06,4.278 -0.06,4.492 0.02,0.821 0.1,7.879 -2.11,11.036 -0.74,1.054 -1.68,1.629 -2.83,1.629 h -0.02 l -13.79,0.214 -0.56,0.063 c -2.76,0 -5.84,-2.043 -6.39,-7.699 -0.19,-1.961 -0.29,-5.653 -0.37,-9.825 l 0.35,0.09"
       style="fill:#42608b;fill-opacity:1;fill-rule:nonzero;stroke:none"
       id="path6172" /><path
       d="m 1602.79,494.227 c -1.06,0 -1.72,0.121 -1.72,0.121 l -18.52,-0.063 -0.33,0.129 c -7.89,2.578 -9.55,11.024 -9.31,15.176 -0.04,1.101 -0.32,30.769 0.72,38.406 0.84,6.496 5.86,8.801 10.21,8.801 l 0.94,-0.047 22.15,-0.238 h 0.04 c 1.89,0 3.4,-0.653 4.57,-1.864 3.55,-3.632 3.4,-11.757 3.36,-12.675 0.04,-1.067 0.7,-29.102 -0.74,-38.157 -0.96,-5.984 -5.22,-9.589 -11.37,-9.589"
       style="fill:#989b9e;fill-opacity:1;fill-rule:nonzero;stroke:none"
       id="path6174" /><path
       d="m 1601.69,497.793 -1.5,0.105 -16.23,-0.039 -0.33,0.102 c -6.9,2.281 -8.34,9.707 -8.15,13.336 -0.04,0.969 -0.27,27.023 0.63,33.703 0.74,5.711 5.14,7.742 8.98,7.742 l 0.84,-0.027 19.42,-0.215 h 0.02 c 1.7,0 2.98,-0.598 4.04,-1.652 3.09,-3.18 2.97,-10.321 2.97,-11.121 0,-0.93 0.58,-25.547 -0.69,-33.508 -0.86,-5.254 -4.57,-8.426 -10,-8.426"
       style="fill:#28405e;fill-opacity:1;fill-rule:nonzero;stroke:none"
       id="path6176" /><path
       d="m 1580.46,531.113 h 25.79 c -0.02,2.559 -0.06,4.278 -0.06,4.492 0.02,0.821 0.09,7.879 -2.11,11.036 -0.75,1.054 -1.66,1.629 -2.83,1.629 h -0.02 l -13.79,0.214 -0.57,0.063 c -2.75,0 -5.84,-2.043 -6.39,-7.699 -0.17,-1.961 -0.29,-5.653 -0.35,-9.825 l 0.33,0.09"
       style="fill:#42608b;fill-opacity:1;fill-rule:nonzero;stroke:none"
       id="path6178" /><path
       d="m 1667.26,494.227 c -1.01,0 -1.68,0.121 -1.68,0.121 l -18.51,-0.063 -0.38,0.129 c -7.87,2.578 -9.53,11.024 -9.29,15.176 0,1.101 -0.31,30.769 0.72,38.406 0.84,6.496 5.84,8.801 10.23,8.801 l 0.94,-0.047 22.11,-0.238 h 0.04 c 1.91,0 3.42,-0.653 4.59,-1.864 3.54,-3.632 3.4,-11.757 3.38,-12.675 0.02,-1.067 0.68,-29.102 -0.76,-38.157 -0.98,-5.984 -5.2,-9.589 -11.39,-9.589"
       style="fill:#989b9e;fill-opacity:1;fill-rule:nonzero;stroke:none"
       id="path6180" /><path
       d="m 1666.19,497.793 c -0.92,0 -1.49,0.105 -1.49,0.105 l -16.27,-0.039 -0.31,0.102 c -6.91,2.281 -8.36,9.707 -8.16,13.336 0,0.969 -0.28,27.023 0.64,33.703 0.72,5.711 5.12,7.742 8.98,7.742 l 0.83,-0.027 19.43,-0.215 h 0.04 c 1.66,0 2.95,-0.598 4.02,-1.652 3.11,-3.18 2.97,-10.321 2.95,-11.121 0.02,-0.93 0.61,-25.547 -0.68,-33.508 -0.84,-5.254 -4.57,-8.426 -9.98,-8.426"
       style="fill:#28405e;fill-opacity:1;fill-rule:nonzero;stroke:none"
       id="path6182" /><path
       d="m 1644.96,531.113 h 25.78 c -0.02,2.559 -0.06,4.278 -0.06,4.492 0.04,0.821 0.14,7.879 -2.09,11.036 -0.76,1.054 -1.68,1.629 -2.87,1.629 h -0.02 l -13.75,0.214 -0.59,0.063 c -2.73,0 -5.86,-2.043 -6.38,-7.699 -0.18,-1.961 -0.32,-5.653 -0.38,-9.825 l 0.36,0.09"
       style="fill:#42608b;fill-opacity:1;fill-rule:nonzero;stroke:none"
       id="path6184" /><path
       d="m 1731.73,494.227 c -1.03,0 -1.68,0.121 -1.68,0.121 l -18.51,-0.063 -0.37,0.129 c -7.87,2.578 -9.51,11.024 -9.3,15.176 0,1.101 -0.29,30.769 0.72,38.406 0.84,6.496 5.84,8.801 10.24,8.801 l 0.95,-0.047 22.11,-0.238 h 0.02 c 1.94,0 3.42,-0.653 4.63,-1.864 3.5,-3.632 3.36,-11.757 3.34,-12.675 0.02,-1.067 0.69,-29.102 -0.76,-38.157 -0.98,-5.984 -5.2,-9.589 -11.39,-9.589"
       style="fill:#989b9e;fill-opacity:1;fill-rule:nonzero;stroke:none"
       id="path6186" /><path
       d="m 1730.68,497.793 c -0.94,0 -1.51,0.105 -1.51,0.105 l -16.26,-0.039 -0.32,0.098 c -6.91,2.285 -8.36,9.711 -8.16,13.34 0,0.969 -0.26,27.023 0.64,33.703 0.75,5.715 5.12,7.742 8.99,7.742 l 0.84,-0.027 19.41,-0.215 h 0.04 c 1.66,0 2.97,-0.598 4.02,-1.652 3.11,-3.18 2.99,-10.321 2.95,-11.121 0.04,-0.93 0.61,-25.547 -0.66,-33.504 -0.86,-5.254 -4.57,-8.43 -9.98,-8.43"
       style="fill:#28405e;fill-opacity:1;fill-rule:nonzero;stroke:none"
       id="path6188" /><path
       d="m 1709.43,531.113 h 25.78 c -0.02,2.559 -0.06,4.278 -0.06,4.492 0.04,0.821 0.12,7.879 -2.11,11.036 -0.7,1.054 -1.66,1.629 -2.85,1.629 h -0.02 l -13.75,0.214 -0.59,0.063 c -2.73,0 -5.83,-2.043 -6.38,-7.699 -0.18,-1.961 -0.29,-5.653 -0.37,-9.825 l 0.35,0.09"
       style="fill:#42608b;fill-opacity:1;fill-rule:nonzero;stroke:none"
       id="path6190" /><path
       d="m 1796.23,494.227 c -1.06,0 -1.72,0.121 -1.72,0.121 l -18.48,-0.063 -0.35,0.129 c -7.91,2.578 -9.55,11.024 -9.32,15.176 -0.02,1.101 -0.31,30.769 0.71,38.406 0.85,6.496 5.85,8.801 10.23,8.801 l 0.96,-0.047 22.11,-0.238 h 0.04 c 1.91,0 3.41,-0.653 4.58,-1.864 3.54,-3.632 3.4,-11.757 3.38,-12.675 0.02,-1.067 0.69,-29.102 -0.78,-38.157 -0.93,-5.984 -5.19,-9.589 -11.36,-9.589"
       style="fill:#989b9e;fill-opacity:1;fill-rule:nonzero;stroke:none"
       id="path6192" /><path
       d="m 1795.15,497.793 -1.5,0.105 -16.23,-0.039 -0.34,0.098 c -6.89,2.285 -8.35,9.711 -8.16,13.34 -0.02,0.969 -0.23,27.023 0.63,33.703 0.74,5.715 5.15,7.742 9,7.742 l 0.84,-0.027 19.39,-0.215 h 0.02 c 1.7,0 3.03,-0.598 4.05,-1.652 3.12,-3.18 2.98,-10.321 2.97,-11.121 0.01,-0.93 0.58,-25.547 -0.67,-33.504 -0.84,-5.254 -4.57,-8.43 -10,-8.43"
       style="fill:#28405e;fill-opacity:1;fill-rule:nonzero;stroke:none"
       id="path6194" /><path
       d="m 1773.92,531.113 h 25.78 c -0.02,2.559 -0.06,4.278 -0.06,4.492 0,0.821 0.12,7.879 -2.09,11.036 -0.76,1.054 -1.66,1.629 -2.85,1.629 h -0.04 l -13.77,0.214 -0.56,0.063 c -2.74,0 -5.86,-2.043 -6.37,-7.699 -0.2,-1.961 -0.33,-5.653 -0.39,-9.825 l 0.35,0.09"
       style="fill:#42608b;fill-opacity:1;fill-rule:nonzero;stroke:none"
       id="path6196" /><path
       d="m 1860.72,494.227 c -1.08,0 -1.74,0.121 -1.74,0.121 l -18.48,-0.063 -0.37,0.129 c -7.87,2.578 -9.53,11.024 -9.29,15.176 -0.02,1.101 -0.32,30.769 0.7,38.406 0.86,6.496 5.86,8.801 10.25,8.801 l 0.94,-0.047 22.11,-0.238 h 0.04 c 1.91,0 3.42,-0.653 4.59,-1.864 3.55,-3.632 3.4,-11.757 3.38,-12.675 0.02,-1.067 0.68,-29.102 -0.76,-38.157 -0.94,-5.984 -5.2,-9.589 -11.37,-9.589"
       style="fill:#989b9e;fill-opacity:1;fill-rule:nonzero;stroke:none"
       id="path6198" /><path
       d="m 1859.62,497.793 c -0.91,0 -1.48,0.105 -1.48,0.105 l -16.25,-0.039 -0.31,0.098 c -6.92,2.285 -8.38,9.711 -8.17,13.34 -0.02,0.969 -0.25,27.023 0.63,33.703 0.72,5.715 5.13,7.742 8.98,7.742 l 0.84,-0.027 19.42,-0.215 h 0.02 c 1.68,0 3,-0.598 4.02,-1.652 3.14,-3.18 2.99,-10.321 2.99,-11.121 0,-0.93 0.58,-25.547 -0.67,-33.504 -0.86,-5.254 -4.59,-8.43 -10.02,-8.43"
       style="fill:#28405e;fill-opacity:1;fill-rule:nonzero;stroke:none"
       id="path6200" /><path
       d="m 1838.43,531.113 h 25.74 c -0.01,2.559 -0.05,4.278 -0.05,4.492 0.02,0.821 0.11,7.879 -2.09,11.036 -0.77,1.054 -1.66,1.629 -2.86,1.629 h -0.03 l -13.77,0.214 -0.57,0.063 c -2.73,0 -5.84,-2.043 -6.37,-7.699 -0.19,-1.961 -0.31,-5.653 -0.37,-9.825 l 0.37,0.09"
       style="fill:#42608b;fill-opacity:1;fill-rule:nonzero;stroke:none"
       id="path6202" /><path
       d="m 1388.33,247.875 c -0.01,0.008 0,0 -0.01,0.008 390.25,39.824 674,95.332 721.59,110.082 -47.59,-14.754 -331.37,-70.258 -721.58,-110.09 m 721.59,110.094 c 0.01,0.004 0.03,0.011 0.05,0.015 -0.02,-0.004 -0.04,-0.011 -0.05,-0.015 m 0.05,0.015 c 0.1,0.032 0.18,0.055 0.27,0.086 -0.08,-0.027 -0.18,-0.058 -0.27,-0.086 m 0.34,0.106 0.01,0.004 -0.01,-0.004 m 0.07,0.023 h 0.01 -0.01 m 0.07,0.024 h 0.01 -0.01 m 0.08,0.019 c 0,0.004 0.01,0.008 0.01,0.008 0,-0.004 -0.01,-0.004 -0.01,-0.008 m 0.06,0.02 c 0.01,0.004 0.02,0.008 0.03,0.012 -0.01,-0.004 -0.02,-0.008 -0.03,-0.012 m 0.12,0.043 0.01,0.004 c 0.02,0.004 0.03,0.007 0.05,0.015 -0.02,-0.008 -0.04,-0.015 -0.06,-0.019"
       style="fill:#346abc;fill-opacity:1;fill-rule:nonzero;stroke:none"
       id="path6204" /><path
       d="m 2110.72,358.223 c 0.02,0.004 0.04,0.007 0.05,0.015 v 0 c -0.02,-0.008 -0.03,-0.011 -0.05,-0.015"
       style="fill:#3064b4;fill-opacity:1;fill-rule:nonzero;stroke:none"
       id="path6206" /><path
       d="m 2110.8,358.246 c 0.01,0.004 0.02,0.008 0.03,0.008 -0.01,0 -0.02,-0.004 -0.03,-0.008 m 0.07,0.024 h 0.01 l 0.01,0.003 c -0.01,0 -0.01,-0.003 -0.02,-0.003"
       style="fill:#346abc;fill-opacity:1;fill-rule:nonzero;stroke:none"
       id="path6208" /><path
       d="m 2110.88,358.27 0.01,0.003 v 0 l -0.01,-0.003"
       style="fill:#3064b4;fill-opacity:1;fill-rule:nonzero;stroke:none"
       id="path6210" /><path
       d="m 2110.95,358.293 c 0.01,0.004 0.02,0.004 0.02,0.008 -0.01,-0.004 -0.01,-0.004 -0.02,-0.008 m 0.06,0.02 c 0.01,0.003 0.02,0.007 0.03,0.011 -0.01,-0.004 -0.02,-0.008 -0.03,-0.011 m 0.15,0.046 c 0.01,0.004 0.01,0.004 0.02,0.008 -0.01,-0.004 -0.01,-0.004 -0.02,-0.008"
       style="fill:#346abc;fill-opacity:1;fill-rule:nonzero;stroke:none"
       id="path6212" /><path
       d="m 2111.16,358.359 c 0.01,0.004 0.02,0.008 0.03,0.008 h -0.01 c -0.01,-0.004 -0.01,-0.004 -0.02,-0.008 v 0"
       style="fill:#3064b4;fill-opacity:1;fill-rule:nonzero;stroke:none"
       id="path6214" /><path
       d="m 2111.23,358.383 c 0,0.004 0,0.004 0.01,0.004 l -0.01,-0.004"
       style="fill:#346abc;fill-opacity:1;fill-rule:nonzero;stroke:none"
       id="path6216" /><path
       d="m 2111.22,358.379 c 0.01,0.004 0.02,0.008 0.03,0.012 l -0.01,-0.004 c -0.01,0 -0.01,0 -0.01,-0.004 -0.01,0 -0.01,0 -0.01,-0.004"
       style="fill:#3064b4;fill-opacity:1;fill-rule:nonzero;stroke:none"
       id="path6218" /><path
       d="m 2315.72,465.176 v 0 c 0.05,0.043 0.11,0.082 0.16,0.125 -0.05,-0.043 -0.11,-0.082 -0.16,-0.125 m 0.16,0.125 c 0.81,0.633 1.61,1.289 2.39,1.965 -0.78,-0.676 -1.58,-1.332 -2.39,-1.965 m 2.42,1.992 c 0.02,0.012 0.03,0.027 0.05,0.043 -0.02,-0.016 -0.03,-0.027 -0.05,-0.043"
       style="fill:#346abc;fill-opacity:1;fill-rule:nonzero;stroke:none"
       id="path6220" /><path
       d="m 2315.72,465.176 c 4.8,3.719 9.08,8.258 12.76,13.265 -2.99,-4.074 -6.38,-7.839 -10.13,-11.105 -0.02,-0.016 -0.03,-0.031 -0.05,-0.043 -0.01,-0.008 -0.02,-0.02 -0.03,-0.027 -0.78,-0.676 -1.58,-1.332 -2.39,-1.965 v 0 c -0.05,-0.043 -0.11,-0.082 -0.16,-0.125"
       style="fill:#3064b4;fill-opacity:1;fill-rule:nonzero;stroke:none"
       id="path6222" /><path
       d="m 296.648,612.129 c 0,0 75.547,48.371 184.297,55.398 8.547,0.555 21.711,0.809 38.676,0.809 199.016,0 924.069,-35.047 924.069,-35.047 l -952.643,13.09 c 0,0 -2.094,0.234 -5.586,0.234 -12.578,0 -43.34,-3.078 -59.902,-31.457 l -128.911,-3.027"
       style="fill:#ffffff;fill-opacity:1;fill-rule:nonzero;stroke:none"
       id="path6224" /><path
       d="m 168.949,343.473 c -53.976,2.715 -125.7888,11.562 -162.48806,41.386 0.03125,1.133 0.17969,1.711 0.17969,1.711 19.12887,58.41 106.75737,83.586 106.75737,83.586 43.704,-9.89 55.645,-65.187 57.024,-116.34 -0.395,-3.461 -0.887,-6.91 -1.473,-10.343"
       style="fill:#f5f5f5;fill-opacity:1;fill-rule:nonzero;stroke:none"
       id="path6226" /><path
       d="m 160.875,313.137 c -45.465,11.179 -92.082,25.09 -131.3906,49.734 -7.9649,5.02 -15.7969,10.84 -22.61331,17.402 -0.375,1.997 -0.4414,3.532 -0.41015,4.586 C 43.1602,355.035 114.973,346.188 168.949,343.473 c -1.761,-10.305 -4.418,-20.465 -8.074,-30.336"
       style="fill:#82b0d8;fill-opacity:1;fill-rule:nonzero;stroke:none"
       id="path6228" /><path
       d="m 589.188,205.32 h -0.004 0.004 v 0 m 0.031,0 c 24.769,0 49.453,0.137 74.051,0.407 0.128,0 0.242,0 0.371,0.003 -24.746,-0.273 -49.5,-0.41 -74.422,-0.41 m 84.105,0.52 v 0 c 82.145,1.012 163.114,3.457 242.367,7.035 v -0.004 c -79.253,-3.574 -160.222,-6.019 -242.367,-7.031"
       style="fill:#ebebeb;fill-opacity:1;fill-rule:nonzero;stroke:none"
       id="path6230" /><path
       d="m 589.188,205.32 h -0.004 c -29.543,0 -59.176,0.196 -88.907,0.602 29.692,-0.402 59.309,-0.598 88.809,-0.598 24.816,0 49.543,0.137 74.184,0.403 -24.598,-0.27 -49.282,-0.407 -74.051,-0.407 h -0.031 m 84.136,0.52 c 71.832,10.508 142.473,28.058 210.848,53.203 13.16,4.844 26.262,9.824 39.332,14.906 -3.715,-15.972 -6.473,-37.094 -7.813,-61.074 -79.253,-3.578 -160.222,-6.023 -242.367,-7.035 m 710.076,47.023 c -44.89,45.422 -80.92,82.489 -80.92,82.489 0,0 -4.34,3.656 -11.48,8.574 10.71,-5.492 21.42,-10.996 32.67,-15.203 19.24,-7.211 39.1,-9.875 59.13,-9.875 27.64,0 55.59,5.07 82.59,10.261 56.32,10.813 113.02,18.43 169.84,26.446 52.13,7.324 104.26,14.668 156.41,22.09 38.37,5.46 81.21,8.48 116.95,24.472 36.09,16.145 59.69,48.957 95.98,65.539 39.19,17.891 84.29,19.004 126.28,24.746 57.47,7.836 114.45,18.051 171.38,28.571 13.82,-1.696 27.75,-3.336 41.63,-5.219 0.48,3.371 0.73,6.621 0.67,9.656 0.38,-13.98 -5.38,-32.453 -16.05,-46.969 7.97,10.864 13.16,23.946 15.11,35.707 -20.37,-16.707 -44.14,-29.785 -67.79,-41.023 -0.42,-0.199 -0.84,-0.398 -1.26,-0.598 -0.45,0.278 -0.68,0.422 -0.68,0.422 0,0 -22.42,11.176 -44.15,11.176 -3.44,0 -6.87,-0.281 -10.18,-0.934 l -199.87,-22.078 c 0,0 -11.89,-2.043 -22.97,-9.105 -4.88,-2.762 -9.17,-6.078 -11.15,-9.844 -0.19,-0.23 -0.37,-0.465 -0.55,-0.699 -7.94,-10.567 -12.3,-31.848 3.44,-40.762 7.03,-3.992 28.57,-10.574 57,-18.219 -98.41,-30.578 -199.49,-49.117 -301.51,-66.156 -120.38,-20.121 -240.14,-43.531 -360.52,-63.465 m -170.67,116.598 h -49.17 c 3,1.086 5.99,2.16 9,3.23 13.26,-0.722 26.79,-1.558 40.17,-3.23"
       style="fill:#d9dada;fill-opacity:1;fill-rule:nonzero;stroke:none"
       id="path6232" /><path
       d="m 589.086,205.324 c -29.5,0 -59.117,0.196 -88.809,0.598 -31.093,0.426 -62.339,1.078 -93.566,1.976 v 0 C 169.598,214.715 -0.0195313,327 0,383.754 c 0,0.027 0,0.055 0,0.082 0.0273438,1.164 0.125,2.316 0.234375,3.469 2.066405,-2.43 4.292965,-4.774 6.636715,-7.032 C 9.52344,366.168 27.5625,329.031 134.988,275.43 c 9.375,8.554 17.754,18.105 23.242,31.043 0.934,2.207 1.817,4.429 2.645,6.664 9.02,-2.215 17.988,-4.324 26.852,-6.387 103.687,-24.145 210.035,-37.043 315.933,-47.035 56.918,-5.379 114.723,-12.574 172.11,-12.57 43.457,0 86.679,4.125 129.054,16.293 33.516,9.617 20.946,36.367 34.68,61.367 4.492,8.168 10.894,14.398 18.363,19.218 -0.023,-0.347 -0.039,-0.707 -0.039,-1.062 0,-5.273 2.949,-11.555 10.246,-19.027 7.711,-7.879 29.02,-22.145 58.11,-39.887 -0.942,-3.078 -1.836,-6.453 -2.68,-10.098 -13.07,-5.082 -26.172,-10.062 -39.332,-14.906 C 815.797,233.898 745.156,216.348 673.324,205.84 v 0 c -3.191,-0.039 -6.488,-0.074 -9.683,-0.11 -0.129,-0.003 -0.243,-0.003 -0.371,-0.003 -24.641,-0.266 -49.368,-0.403 -74.184,-0.403 M 1163.56,369.461 H 1003.4 c 36.86,3.012 73.82,4.867 110.78,4.867 18.04,0 36.08,-0.441 54.1,-1.406 1.42,-0.078 2.85,-0.152 4.28,-0.231 -3.01,-1.07 -6,-2.144 -9,-3.23 m 1180.3,146.293 c -13.88,1.883 -27.81,3.523 -41.63,5.219 14.03,2.59 28.05,5.199 42.08,7.797 0.12,-1.086 0.19,-2.207 0.22,-3.36 0.06,-3.035 -0.19,-6.285 -0.67,-9.656"
       style="fill:#3064b4;fill-opacity:1;fill-rule:nonzero;stroke:none"
       id="path6234" /><path
       d="m 2109.91,357.965 c 0,0 0,0.004 0.01,0.004 -0.01,-0.004 0,0 -0.01,-0.004 m 0.06,0.019 v 0 0 m 0.27,0.086 c 0.01,0 0,0 0.01,0 l 0.01,0.004 c 0.01,0.004 0.03,0.012 0.05,0.016 -0.02,-0.008 -0.05,-0.016 -0.07,-0.02"
       style="fill:#ebebeb;fill-opacity:1;fill-rule:nonzero;stroke:none"
       id="path6236" /><path
       d="m 2110.25,358.07 0.01,0.004 -0.01,-0.004"
       style="fill:#d9dada;fill-opacity:1;fill-rule:nonzero;stroke:none"
       id="path6238" /><path
       d="m 2110.32,358.094 c 0.01,0.004 0.01,0.004 0.01,0.004 0.01,0.004 0.04,0.007 0.04,0.011 0.01,0 0.01,0.004 0.01,0.004 -0.02,-0.008 -0.04,-0.011 -0.06,-0.019"
       style="fill:#ebebeb;fill-opacity:1;fill-rule:nonzero;stroke:none"
       id="path6240" /><path
       d="m 2110.33,358.098 c 0.02,0.004 0.03,0.007 0.04,0.011 0,-0.004 -0.03,-0.007 -0.04,-0.011"
       style="fill:#d9dada;fill-opacity:1;fill-rule:nonzero;stroke:none"
       id="path6242" /><path
       d="m 2110.39,358.113 c 0,0.004 0.01,0.004 0.01,0.004 0.01,0.008 0.03,0.008 0.04,0.016 0.01,0 0.01,0 0.01,0.004 -0.02,-0.008 -0.04,-0.012 -0.06,-0.024"
       style="fill:#ebebeb;fill-opacity:1;fill-rule:nonzero;stroke:none"
       id="path6244" /><path
       d="m 2110.4,358.117 c 0.01,0.008 0.02,0.008 0.04,0.016 -0.01,-0.008 -0.03,-0.008 -0.04,-0.016"
       style="fill:#d9dada;fill-opacity:1;fill-rule:nonzero;stroke:none"
       id="path6246" /><path
       d="m 2110.46,358.137 v 0 c 0.02,0.008 0.04,0.011 0.06,0.019 0,0 0,0 0.01,0 -0.03,-0.004 -0.05,-0.011 -0.07,-0.019"
       style="fill:#ebebeb;fill-opacity:1;fill-rule:nonzero;stroke:none"
       id="path6248" /><path
       d="m 2110.46,358.137 c 0.02,0.008 0.04,0.011 0.06,0.019 -0.02,-0.008 -0.04,-0.011 -0.06,-0.019"
       style="fill:#d9dada;fill-opacity:1;fill-rule:nonzero;stroke:none"
       id="path6250" /><path
       d="m 2110.54,358.164 c 0.01,0.004 0.01,0.004 0.02,0.004 0.01,0.004 0.01,0.004 0.02,0.008 h 0.01 c -0.02,-0.004 -0.03,-0.008 -0.05,-0.012"
       style="fill:#ebebeb;fill-opacity:1;fill-rule:nonzero;stroke:none"
       id="path6252" /><path
       d="m 2110.56,358.168 c 0,0.004 0.01,0.004 0.02,0.008 -0.01,-0.004 -0.01,-0.004 -0.02,-0.008"
       style="fill:#d9dada;fill-opacity:1;fill-rule:nonzero;stroke:none"
       id="path6254" /><path
       d="m 2110.62,358.188 0.01,0.003 c 0,0 0.01,0.004 0.02,0.008 0.01,0 0.02,0.004 0.03,0.008 0.01,0.004 0.02,0.008 0.03,0.008 v 0.004 c -0.03,-0.012 -0.06,-0.02 -0.09,-0.031"
       style="fill:#ebebeb;fill-opacity:1;fill-rule:nonzero;stroke:none"
       id="path6256" /><path
       d="m 2110.63,358.191 c 0.01,0 0.01,0.004 0.02,0.008 -0.01,-0.004 -0.02,-0.008 -0.02,-0.008 m 0.05,0.016 c 0.01,0.004 0.02,0.004 0.03,0.008 -0.01,0 -0.02,-0.004 -0.03,-0.008"
       style="fill:#d9dada;fill-opacity:1;fill-rule:nonzero;stroke:none"
       id="path6258" /><path
       d="m 2110.8,358.246 v 0 0 0"
       style="fill:#ebebeb;fill-opacity:1;fill-rule:nonzero;stroke:none"
       id="path6260" /><path
       d="m 2110.77,358.238 c 0.01,0 0.02,0.004 0.03,0.008 v 0 c -0.01,-0.004 -0.02,-0.008 -0.03,-0.008"
       style="fill:#d9dada;fill-opacity:1;fill-rule:nonzero;stroke:none"
       id="path6262" /><path
       d="m 2110.83,358.254 v 0.004 c 0.02,0.004 0.03,0.004 0.04,0.012 v 0 c -0.01,-0.004 -0.02,-0.008 -0.04,-0.016"
       style="fill:#ebebeb;fill-opacity:1;fill-rule:nonzero;stroke:none"
       id="path6264" /><path
       d="m 2110.83,358.258 c 0.02,0.004 0.03,0.008 0.04,0.012 -0.01,-0.008 -0.02,-0.008 -0.04,-0.012"
       style="fill:#d9dada;fill-opacity:1;fill-rule:nonzero;stroke:none"
       id="path6266" /><path
       d="m 2110.93,358.285 c 0.01,0.004 0.01,0.008 0.02,0.008 v 0 c -0.01,0 -0.01,-0.004 -0.02,-0.008"
       style="fill:#ebebeb;fill-opacity:1;fill-rule:nonzero;stroke:none"
       id="path6268" /><path
       d="m 2110.89,358.273 c 0.02,0.008 0.04,0.012 0.06,0.02 -0.01,0 -0.01,-0.004 -0.02,-0.008 -0.02,-0.004 -0.03,-0.008 -0.04,-0.012"
       style="fill:#d9dada;fill-opacity:1;fill-rule:nonzero;stroke:none"
       id="path6270" /><path
       d="m 2110.97,358.301 v 0 c 0.02,0.004 0.03,0.008 0.04,0.012 v 0 c -0.01,-0.004 -0.03,-0.008 -0.04,-0.012"
       style="fill:#ebebeb;fill-opacity:1;fill-rule:nonzero;stroke:none"
       id="path6272" /><path
       d="m 2110.97,358.301 c 0.01,0.004 0.03,0.008 0.04,0.012 -0.01,-0.004 -0.02,-0.008 -0.04,-0.012"
       style="fill:#d9dada;fill-opacity:1;fill-rule:nonzero;stroke:none"
       id="path6274" /><path
       d="m 2111.04,358.324 v 0 c 0.01,0 0.01,0 0.01,0.004 0,-0.004 0,-0.004 -0.01,-0.004 m 0.11,0.031 v 0.004 -0.004"
       style="fill:#ebebeb;fill-opacity:1;fill-rule:nonzero;stroke:none"
       id="path6276" /><path
       d="m 2111.04,358.324 c 0.04,0.012 0.08,0.024 0.12,0.035 h -0.01 v -0.004 c -0.03,-0.007 -0.06,-0.019 -0.1,-0.027 0,-0.004 0,-0.004 -0.01,-0.004 m 0.15,0.043 c 0.01,0.008 0.02,0.008 0.03,0.012 -0.01,-0.004 -0.02,-0.004 -0.03,-0.012"
       style="fill:#d9dada;fill-opacity:1;fill-rule:nonzero;stroke:none"
       id="path6278" /><path
       d="m 2111.25,358.391 c 0.02,0.004 0.03,0.011 0.05,0.015 v 0 c -0.01,-0.004 -0.04,-0.011 -0.05,-0.015"
       style="fill:#d9dada;fill-opacity:1;fill-rule:nonzero;stroke:none"
       id="path6280" /><path
       d="m 1388.32,247.883 v 0.004 c 391.14,39.918 675.39,95.597 721.93,110.183 -0.01,0 0,0 -0.01,0 -0.09,-0.031 -0.17,-0.054 -0.27,-0.086 v 0 c -0.02,-0.004 -0.04,-0.011 -0.05,-0.015 -0.01,0 -0.01,-0.004 -0.01,-0.004 -47.59,-14.75 -331.34,-70.258 -721.59,-110.082 m 721.94,110.191 c 0.03,0.008 0.05,0.016 0.07,0.024 0,0 0,0 -0.01,-0.004 l -0.01,-0.004 c -0.02,-0.004 -0.04,-0.012 -0.05,-0.016 m 0.11,0.035 c 0.01,0.004 0.02,0.004 0.03,0.008 0,0 -0.01,0 -0.01,-0.004 h -0.01 c 0,0 0,-0.004 -0.01,-0.004 m 0.07,0.024 0.02,0.004 v 0 h -0.01 c 0,-0.004 0,-0.004 -0.01,-0.004 m 0.08,0.023 c 0.01,0.004 0.02,0.008 0.04,0.012 -0.01,0 -0.01,0 -0.02,-0.004 0,0 -0.01,-0.004 -0.01,-0.008 -0.01,0 -0.01,0 -0.01,0 m 0.06,0.02 c 0.02,0.004 0.03,0.008 0.05,0.015 l -0.01,-0.003 c -0.01,-0.004 -0.02,-0.008 -0.03,-0.012 h -0.01 m 0.07,0.023 c 0.01,0 0.02,0.004 0.03,0.008 -0.01,-0.004 -0.02,-0.008 -0.03,-0.008 m 0.06,0.016 c 0,0.004 0.01,0.004 0.01,0.008 l -0.01,-0.004 v -0.004 m 0.09,0.031 c 0.01,0.004 0.02,0.008 0.03,0.012 v -0.004 c -0.01,0 -0.02,-0.004 -0.03,-0.008 v 0 m 0.07,0.024 h 0.01 -0.01 v 0 m 0.08,0.023 c 0.01,0.004 0.02,0.008 0.02,0.008 v 0 c 0,-0.004 -0.01,-0.004 -0.02,-0.008 v 0 m 0.06,0.02 c 0.01,0.003 0.02,0.007 0.03,0.011 v 0 c -0.01,-0.004 -0.02,-0.008 -0.03,-0.011 v 0"
       style="fill:#3064b4;fill-opacity:1;fill-rule:nonzero;stroke:none"
       id="path6282" /><path
       d="m 1388.32,247.887 c -1.65,1.664 -3.3,3.332 -4.92,4.976 120.38,19.934 240.14,43.344 360.52,63.465 102.02,17.039 203.1,35.578 301.51,66.156 23.01,-6.187 50.55,-13.078 78.54,-19.843 -4.1,-1.407 -8.32,-2.821 -12.67,-4.235 v 0 c -0.02,-0.004 -0.03,-0.011 -0.05,-0.015 -0.01,-0.004 -0.02,-0.008 -0.03,-0.012 -0.01,-0.004 -0.02,-0.004 -0.03,-0.012 -0.01,0 -0.02,-0.004 -0.03,-0.008 -0.04,-0.011 -0.08,-0.023 -0.12,-0.035 -0.01,-0.004 -0.02,-0.008 -0.03,-0.011 -0.01,-0.004 -0.03,-0.008 -0.04,-0.012 0,0 -0.01,-0.004 -0.02,-0.008 -0.02,-0.008 -0.04,-0.012 -0.06,-0.02 l -0.01,-0.003 h -0.01 c -0.01,-0.004 -0.02,-0.008 -0.04,-0.012 -0.01,-0.004 -0.02,-0.008 -0.03,-0.012 -0.01,-0.004 -0.02,-0.008 -0.03,-0.008 -0.01,-0.008 -0.03,-0.011 -0.05,-0.015 0,-0.004 -0.01,-0.004 -0.01,-0.008 -0.01,-0.004 -0.02,-0.004 -0.03,-0.008 -0.01,-0.004 -0.02,-0.008 -0.03,-0.008 -0.01,-0.004 -0.01,-0.008 -0.02,-0.008 -0.02,-0.007 -0.03,-0.011 -0.05,-0.015 -0.01,-0.004 -0.02,-0.004 -0.02,-0.008 -0.02,-0.004 -0.03,-0.008 -0.04,-0.012 -0.02,-0.008 -0.04,-0.011 -0.06,-0.019 l -0.02,-0.004 c -0.02,-0.008 -0.03,-0.008 -0.04,-0.016 -0.01,-0.004 -0.02,-0.004 -0.03,-0.008 -0.01,-0.004 -0.02,-0.007 -0.04,-0.011 -0.02,-0.008 -0.04,-0.016 -0.07,-0.024 l -0.01,-0.004 c -46.54,-14.586 -330.79,-70.265 -721.93,-110.183 m 913.14,207.933 c -14.19,8.778 -24.29,15.071 -26.92,16.707 0.42,0.2 0.84,0.399 1.26,0.598 23.65,11.238 47.42,24.316 67.79,41.023 -1.95,-11.761 -7.14,-24.843 -15.11,-35.707 -3.68,-5.007 -7.96,-9.546 -12.76,-13.265 v 0 c -1.55,-1.196 -6.95,-4.703 -14.26,-9.356"
       style="fill:#2d5faa;fill-opacity:1;fill-rule:nonzero;stroke:none"
       id="path6284" /><path
       d="M 134.988,275.43 C 27.5625,329.031 9.52344,366.168 6.87109,380.273 13.6875,373.711 21.5195,367.891 29.4844,362.871 68.793,338.227 115.41,324.316 160.875,313.137 c -0.828,-2.235 -1.711,-4.457 -2.645,-6.664 -5.488,-12.938 -13.867,-22.489 -23.242,-31.043"
       style="fill:#79a4ca;fill-opacity:1;fill-rule:nonzero;stroke:none"
       id="path6286" /><path
       d="m 1179.42,287.637 c 0,0 -148.8,21.668 -238.678,17.625 l 5.285,-225.8206 -0.246,-0.7695 -5.039,-24.1797 c 0,0 107.268,-0.9766 238.678,29.207 12.52,0 27.93,42.3948 27.93,98.7228 0,56.308 -15.41,105.215 -27.93,105.215"
       style="fill:#9eaca9;fill-opacity:1;fill-rule:nonzero;stroke:none"
       id="path6288" /><path
       d="m 1064.9,170.316 c -25.62,1.25 -51.21,1 -76.904,1.774 -7.379,0.211 -14.66,0.762 -21.887,1.312 0.024,2.157 0.032,4.317 0.032,6.5 0,32.45 -2.52,62.02 -6.661,84.282 31.461,-18.434 67.9,-39 104.61,-59.352 l 0.81,-34.516"
       style="fill:#7a908d;fill-opacity:1;fill-rule:nonzero;stroke:none"
       id="path6290" /><path
       d="m 941.91,54.4883 c -0.769,0 -1.168,0.0039 -1.168,0.0039 v 0 0.0078 c 4.598,0.2266 8.906,6.3516 12.621,16.9063 13.825,0.1367 27.668,-0.1407 41.508,1.4843 24.049,2.8008 48.099,5.4961 72.129,8.2149 l 0.41,-17.3516 C 998.758,54.875 949.949,54.4883 941.91,54.4883"
       style="fill:#7a908d;fill-opacity:1;fill-rule:nonzero;stroke:none"
       id="path6292" /><path
       d="m 966.141,179.902 c 0,-69.269 -11.485,-125.4098 -25.661,-125.4098 -14.171,0 -25.683,56.1408 -25.683,125.4098 0,69.239 11.512,125.36 25.683,125.36 14.176,0 25.661,-56.121 25.661,-125.36"
       style="fill:#e2dacc;fill-opacity:1;fill-rule:nonzero;stroke:none"
       id="path6294" /><path
       d="m 942.18,262.832 c -1.465,3.477 -3.059,5.488 -4.707,5.488 -7.524,0 -13.618,-38.808 -13.618,-86.672 0,-47.871 6.094,-86.6402 13.618,-86.6402 1.929,0 3.789,2.6485 5.465,7.3672 -5.184,12.254 -8.883,43.902 -8.883,81.16 0,35.438 3.355,65.867 8.125,79.297"
       style="fill:#868683;fill-opacity:1;fill-rule:nonzero;stroke:none"
       id="path6296" /><path
       d="m 942.18,262.832 c -4.77,-13.43 -8.125,-43.859 -8.125,-79.297 0,-37.258 3.699,-68.906 8.883,-81.16 4.789,13.434 8.109,43.844 8.109,79.273 0,37.27 -3.676,68.938 -8.867,81.184"
       style="fill:#868683;fill-opacity:1;fill-rule:nonzero;stroke:none"
       id="path6298" /><path
       d="m 1265.62,196.973 c 0,0 -125.71,18.32 -201.69,14.902 l 4.49,-190.8203 -0.21,-0.6563 L 1063.93,0 c 0,0 90.65,-0.859375 201.69,24.6367 10.59,0 23.61,35.8516 23.61,83.4373 0,47.578 -13.02,88.899 -23.61,88.899"
       style="fill:#9eaca9;fill-opacity:1;fill-rule:nonzero;stroke:none"
       id="path6300" /><path
       d="m 1284.46,86.3086 c -32.12,4.7422 -64.52,7.332 -96.91,10.2617 -27.89,2.5313 -55.7,1.9453 -83.65,2.7539 -12.7,0.3711 -25,1.9338 -37.37,2.2388 l -2.44,103.265 c 105.28,-58.355 212.96,-115.0155 212.96,-115.0155 0,0 2.6,-1.4102 7.41,-3.5039"
       style="fill:#7a908d;fill-opacity:1;fill-rule:nonzero;stroke:none"
       id="path6302" /><path
       d="m 1063.93,0 2.95,14.1016 c 0.01,0 0.01,0 0.01,0 L 1063.93,0 m 201.73,24.6367 h 0.01 -0.01"
       style="fill:#c3d3cd;fill-opacity:1;fill-rule:nonzero;stroke:none"
       id="path6304" /><path
       d="M 1064.99,-0.00390625 C 1064.29,-0.00390625 1063.93,0 1063.93,0 v 0 l 2.96,14.1016 c 14.27,0.4492 28.55,-0.2461 42.81,1.4257 21.23,2.4727 42.46,4.8438 63.72,7.2461 34.62,3.9141 69.17,10.0782 103.76,14.6485 -3.67,-8.0117 -7.74,-12.7422 -11.51,-12.7852 h -0.01 c -0.01,0 -0.03,0 -0.04,0 v 0 C 1161.59,0.75 1075.45,-0.00390625 1064.99,-0.00390625"
       style="fill:#7a908d;fill-opacity:1;fill-rule:nonzero;stroke:none"
       id="path6306" /><path
       d="M 1085.43,105.938 C 1085.43,47.4023 1075.72,0 1063.72,0 c -11.96,0 -21.69,47.4023 -21.69,105.938 0,58.496 9.73,105.937 21.69,105.937 12,0 21.71,-47.441 21.71,-105.937"
       style="fill:#e2dacc;fill-opacity:1;fill-rule:nonzero;stroke:none"
       id="path6308" /><path
       d="m 1065.17,176.023 c -1.24,2.942 -2.58,4.622 -4,4.622 -6.34,0 -11.47,-32.774 -11.47,-73.223 0,-40.4298 5.13,-73.2111 11.47,-73.2111 1.65,0 3.23,2.2422 4.65,6.211 -4.38,10.3594 -7.51,37.0859 -7.51,68.5901 0,29.961 2.82,55.664 6.86,67.011"
       style="fill:#868683;fill-opacity:1;fill-rule:nonzero;stroke:none"
       id="path6310" /><path
       d="m 1065.17,176.023 c -4.04,-11.347 -6.86,-37.05 -6.86,-67.011 0,-31.5042 3.13,-58.2307 7.51,-68.5901 4.03,11.3359 6.84,37.0664 6.84,67.0001 0,31.504 -3.12,58.25 -7.49,68.601"
       style="fill:#868683;fill-opacity:1;fill-rule:nonzero;stroke:none"
       id="path6312" /><path
       d="M 1221.97,369.461 H 910.48 c 0,0 -80.531,-6.484 -42.406,-45.527 38.149,-38.993 408.976,-234.1215 408.976,-234.1215 0,0 36.03,-19.4805 86.89,-21.1211 0,0 230.94,-16.2422 177.99,29.2774 -52.95,45.5152 -239.45,237.3832 -239.45,237.3832 0,0 -42.39,35.761 -80.51,34.109"
       style="fill:#c3d3cd;fill-opacity:1;fill-rule:nonzero;stroke:none"
       id="path6314" /><path
       d="M 1221.97,369.461 H 910.48 c 0,0 -80.531,-6.484 -42.406,-45.527 38.149,-38.993 408.976,-234.1215 408.976,-234.1215 0,0 36.03,-19.4805 86.89,-21.1211 0,0 230.94,-16.2422 177.99,29.2774 -52.95,45.5152 -239.45,237.3832 -239.45,237.3832 0,0 -42.39,35.761 -80.51,34.109"
       style="fill:#d2d5d3;fill-opacity:1;fill-rule:nonzero;stroke:none"
       id="path6316" /><path
       d="m 1541.93,97.9688 c -52.95,45.5152 -239.45,237.3832 -239.45,237.3832 0,0 -42.39,35.761 -80.51,34.109 h -36.65 c 40.03,-14.578 72.55,-40.301 106.32,-70.086 48.71,-42.98 95.97,-87.637 145.19,-130.059 19.96,-17.238 40.22,-33.976 58.24,-53.3 10.12,-10.762 21.76,-22.098 20.71,-37.8519 -0.24,-3.2618 -1.16,-6.211 -2.58,-8.8868 30.17,4.0313 47.69,12.3829 28.73,28.6915"
       style="fill:#afb4b3;fill-opacity:1;fill-rule:nonzero;stroke:none"
       id="path6318" /><path
       d="m 1355.44,83.0938 c -54.51,0 -116.26,42.6682 -116.26,42.6682 0,0 -309.168,177.246 -342.395,207.461 -27.691,25.156 33.317,27.261 54.516,27.261 4.258,0 6.914,-0.086 6.914,-0.086 -38.266,-12.058 12.066,-39.257 12.066,-39.257 0,0 254.809,-158.114 290.069,-187.305 35.23,-29.219 103.71,-50.3672 103.71,-50.3672 -2.85,-0.254 -5.72,-0.375 -8.62,-0.375"
       style="fill:#eceeec;fill-opacity:1;fill-rule:nonzero;stroke:none"
       id="path6320" /><path
       d="m 2219.53,483.191 -199.87,-22.078 c 0,0 -22.79,-3.918 -34.67,-19.648 -7.94,-10.567 -12.3,-31.848 3.44,-40.762 28.34,-16.094 292.62,-74.316 292.62,-74.316 0,0 54.39,-9.051 92.93,5.293 0,0 110.88,18.3 73.16,37.488 -37.77,19.191 -173.28,103.781 -173.28,103.781 0,0 -30.1,15 -54.33,10.242"
       style="fill:#204172;fill-opacity:1;fill-rule:nonzero;stroke:none"
       id="path6322" /><path
       d="m 2219.53,483.191 -199.87,-22.078 c 0,0 -61.44,-16.093 -22.2,-38.359 28.34,-16.074 281.19,-84.832 281.19,-84.832 0,0 24.69,-6.887 57.3,-2.57 0,0 148.91,14.628 111.19,33.816 -37.77,19.191 -173.28,103.781 -173.28,103.781 0,0 -30.1,15 -54.33,10.242"
       style="fill:#447ec9;fill-opacity:1;fill-rule:nonzero;stroke:none"
       id="path6324" /><path
       d="m 2269.74,349.824 -262.09,83.067 c -9.8,16.621 32.48,23.41 32.48,23.41 l 116.31,14.375 c 0,0 -84.59,-15.852 -103.48,-23.418 -18.88,-7.57 -0.76,-13.606 -0.76,-13.606 l 217.54,-83.828"
       style="fill:#adcfe7;fill-opacity:1;fill-rule:nonzero;stroke:none"
       id="path6326" /><path
       d="m 892.934,461.867 c -23.012,1.832 -45.899,3.922 -68.704,6.309 0,0 40.762,1.008 107.204,2.801 -12.84,-2.997 -25.688,-6.036 -38.5,-9.11 m 658.716,4.731 c 55.41,10.308 111.03,19.531 166.8,27.711 l 11.6,0.039 c 0,0 0.65,-0.121 1.68,-0.121 3.48,0 6.34,1.14 8.35,3.203 3.97,0.562 7.95,1.121 11.93,1.675 5.66,0.266 11.21,0.532 16.76,0.801 1.44,-2.355 3.64,-4.426 6.91,-5.492 l 0.35,-0.129 18.48,0.063 c 0,0 0.66,-0.121 1.72,-0.121 5.45,0 9.41,2.816 10.9,7.605 8.39,0.434 16.6,0.871 24.63,1.309 0.91,-2.735 2.59,-5.512 5.46,-7.352 -68.18,-8.793 -167.75,-20.16 -285.57,-29.191 m 319.37,33.675 c 0.5,1.063 0.86,2.247 1.07,3.543 0.07,0.497 0.15,1.043 0.21,1.645 23.43,1.41 44.69,2.828 63.3,4.246 0,0 -23.25,-3.789 -64.58,-9.434"
       style="fill:#ffffff;fill-opacity:1;fill-rule:nonzero;stroke:none"
       id="path6328" /><path
       d="m 1173.21,451.418 c -92.2,0 -186.847,3.027 -280.276,10.449 12.812,3.074 25.66,6.113 38.5,9.11 159.586,4.312 467.446,13.16 715.176,23.464 0.03,-0.007 0.06,-0.019 0.08,-0.027 l 0.38,-0.129 18.51,0.063 c 0,0 0.67,-0.121 1.68,-0.121 2.22,0 4.18,0.464 5.83,1.332 11.36,0.484 22.52,0.972 33.56,1.464 1.21,-1.101 2.69,-2.011 4.52,-2.609 l 0.37,-0.129 6.91,0.024 c -55.77,-8.18 -111.39,-17.403 -166.8,-27.711 -113.15,-8.668 -243.17,-15.18 -378.44,-15.18 m 566.87,46.012 c 0.35,0.359 0.67,0.746 0.97,1.16 3.66,0.172 7.34,0.344 10.96,0.515 -3.98,-0.554 -7.96,-1.113 -11.93,-1.675"
       style="fill:#ecf5f9;fill-opacity:1;fill-rule:nonzero;stroke:none"
       id="path6330" /><path
       d="m 1667.26,494.227 c -1.01,0 -1.68,0.121 -1.68,0.121 l -18.51,-0.063 -0.38,0.129 c -0.02,0.008 -0.05,0.02 -0.08,0.027 8.91,0.372 17.74,0.743 26.48,1.118 -1.65,-0.868 -3.61,-1.332 -5.83,-1.332"
       style="fill:#f8f8f9;fill-opacity:1;fill-rule:nonzero;stroke:none"
       id="path6332" /><path
       d="m 1731.73,494.227 c -1.03,0 -1.68,0.121 -1.68,0.121 l -11.6,-0.039 -6.91,-0.024 -0.37,0.129 c -1.83,0.598 -3.31,1.508 -4.52,2.609 6.48,0.29 12.92,0.579 19.29,0.868 l 3.23,0.007 c 0,0 0.57,-0.105 1.51,-0.105 1.22,0 2.36,0.16 3.39,0.473 2.33,0.109 4.67,0.214 6.98,0.324 -0.3,-0.414 -0.62,-0.801 -0.97,-1.16 -2.01,-2.063 -4.87,-3.203 -8.35,-3.203"
       style="fill:#f8f8f9;fill-opacity:1;fill-rule:nonzero;stroke:none"
       id="path6334" /><path
       d="m 1730.68,497.793 c -0.94,0 -1.51,0.105 -1.51,0.105 l -3.23,-0.007 c 2.72,0.125 5.43,0.25 8.13,0.375 -1.03,-0.313 -2.17,-0.473 -3.39,-0.473"
       style="fill:#eff0f2;fill-opacity:1;fill-rule:nonzero;stroke:none"
       id="path6336" /><path
       d="m 1796.23,494.227 c -1.06,0 -1.72,0.121 -1.72,0.121 l -18.48,-0.063 -0.35,0.129 c -3.27,1.066 -5.47,3.137 -6.91,5.492 1.5,0.074 3.01,0.149 4.5,0.223 1.04,-0.91 2.29,-1.664 3.81,-2.172 l 0.34,-0.098 16.23,0.039 1.5,-0.105 c 3.59,0 6.44,1.387 8.2,3.844 1.25,0.062 2.53,0.129 3.78,0.195 -1.49,-4.789 -5.45,-7.605 -10.9,-7.605"
       style="fill:#f8f8f9;fill-opacity:1;fill-rule:nonzero;stroke:none"
       id="path6338" /><path
       d="m 1795.15,497.793 -1.5,0.105 -16.23,-0.039 -0.34,0.098 c -1.52,0.508 -2.77,1.262 -3.81,2.172 10.24,0.5 20.28,1.004 30.08,1.508 -1.76,-2.457 -4.61,-3.844 -8.2,-3.844"
       style="fill:#eff0f2;fill-opacity:1;fill-rule:nonzero;stroke:none"
       id="path6340" /><path
       d="m 1837.22,495.789 c -2.87,1.84 -4.55,4.617 -5.46,7.352 1.17,0.062 2.3,0.125 3.46,0.191 1.25,-2.289 3.25,-4.348 6.36,-5.375 l 0.31,-0.098 11.39,0.028 c -5.14,-0.68 -10.5,-1.379 -16.06,-2.098 m 28.5,3.766 c 1.84,1.289 3.14,3.246 3.74,5.734 0.95,0.059 1.9,0.113 2.84,0.172 -0.06,-0.602 -0.14,-1.148 -0.21,-1.645 -0.21,-1.296 -0.57,-2.48 -1.07,-3.543 -1.74,-0.238 -3.49,-0.476 -5.3,-0.718"
       style="fill:#f8f8f9;fill-opacity:1;fill-rule:nonzero;stroke:none"
       id="path6342" /><path
       d="m 1841.89,497.859 -0.31,0.098 c -3.11,1.027 -5.11,3.086 -6.36,5.375 11.85,0.648 23.28,1.305 34.24,1.957 -0.6,-2.488 -1.9,-4.445 -3.74,-5.734 -3.99,-0.539 -8.15,-1.098 -12.44,-1.668 l -11.39,-0.028"
       style="fill:#eff0f2;fill-opacity:1;fill-rule:nonzero;stroke:none"
       id="path6344" /></g><ellipse
     style="fill:none;stroke:#800000;stroke-width:0.197471;stroke-dasharray:0.592412, 0.197471;stroke-dashoffset:0"
     id="ellipse6487"
     cx="39.227345"
     cy="36.342609"
     rx="3.1236343"
     ry="2.9764514" /><path
     style="fill:none;fill-opacity:1;stroke:#800000;stroke-width:0.135644;stroke-dasharray:none;stroke-dashoffset:0;marker-end:url(#Arrow1L)"
     d="m 36.898108,39.415016 c -4.192212,5.898791 -5.463903,16.127935 -1.881862,25.368571"
     id="path6575" /><path
     style="fill:none;fill-opacity:1;stroke:#800000;stroke-width:0.135644;stroke-dasharray:none;stroke-dashoffset:0;marker-end:url(#Arrow1L)"
     d="m 37.790182,67.346166 c 5.898791,-4.192212 16.127935,-5.463903 25.368571,-1.881862"
     id="path7132" /><ellipse
     style="fill:none;fill-opacity:1;stroke:#000000;stroke-width:0.21;stroke-dasharray:none;stroke-dashoffset:0"
     id="path7938"
     cx="117.89354"
     cy="52.171093"
     rx="4.0236812"
     ry="15.718284" /><path
     id="path8710"
     style="fill:url(#linearGradient8772);fill-opacity:1;stroke:#000000;stroke-width:0.1;stroke-dasharray:none"
     d="m 173.12425,36.456413 -55.22956,0.0035 c 1.40574,-0.1668 2.77913,2.791294 3.52458,7.724167 0.74556,4.932611 0.74518,11.059101 -10e-4,15.990288 -0.74629,4.930932 -2.12018,7.885456 -3.52473,7.715009 l 55.23071,0.0036 m 0,-10e-7 c 1.46569,0.174075 2.83958,-2.780449 3.58587,-7.711381 0.74618,-4.931188 0.74656,-11.057678 0.001,-15.990289 -0.74545,-4.932873 -2.11884,-7.890966 -3.58456,-7.720693"
     sodipodi:nodetypes="cccccccccc" /><g
     id="g9398"
     transform="translate(17.346054)"><circle
       style="fill:#ffffff;fill-opacity:1;stroke:#000000;stroke-width:0.1;stroke-dasharray:none;stroke-dashoffset:0"
       id="circle9372"
       cx="132.12442"
       cy="52.171093"
       r="2.9660091" /><path
       id="path9374"
       style="fill:#ffffff;fill-opacity:1;stroke:#000000;stroke-width:0.1;stroke-dasharray:none;stroke-dashoffset:0"
       d="m 132.12424,47.283419 a 0.34099188,0.34099188 0 0 0 -0.34107,0.341064 0.34099188,0.34099188 0 0 0 0.34107,0.341065 0.34099188,0.34099188 0 0 0 0.34106,-0.341065 0.34099188,0.34099188 0 0 0 -0.34106,-0.341064 z m 0,1.921846 a 2.9660091,2.9660091 0 0 0 -2.96572,2.965711 2.9660091,2.9660091 0 0 0 2.96572,2.966227 2.9660091,2.9660091 0 0 0 2.96622,-2.966227 2.9660091,2.9660091 0 0 0 -2.96622,-2.965711 z"
       inkscape:transform-center-x="-6.9833984e-05"
       inkscape:transform-center-y="-0.96078199" /><path
       id="path9376"
       style="fill:#ffffff;fill-opacity:1;stroke:#000000;stroke-width:0.1;stroke-dasharray:none;stroke-dashoffset:0"
       d="m 134.5681,47.938153 a 0.34099188,0.34099188 0 0 0 -0.46591,0.124835 0.34099188,0.34099188 0 0 0 0.12485,0.465906 0.34099188,0.34099188 0 0 0 0.4659,-0.124841 0.34099188,0.34099188 0 0 0 -0.12484,-0.4659 z m -0.96092,1.664368 a 2.9660091,2.9660091 0 0 0 -4.05125,1.085521 2.9660091,2.9660091 0 0 0 1.08528,4.051688 2.9660091,2.9660091 0 0 0 4.05193,-1.085718 2.9660091,2.9660091 0 0 0 -1.08596,-4.051491 z"
       inkscape:transform-center-x="1.2816457e-05"
       inkscape:transform-center-y="-0.65627725" /><path
       id="path9378"
       style="fill:#ffffff;fill-opacity:1;stroke:#000000;stroke-width:0.1;stroke-dasharray:none;stroke-dashoffset:0"
       d="m 136.35718,49.727099 a 0.34099188,0.34099188 0 0 0 -0.46591,-0.124844 0.34099188,0.34099188 0 0 0 -0.12483,0.465911 0.34099188,0.34099188 0 0 0 0.4659,0.124835 0.34099188,0.34099188 0 0 0 0.12484,-0.465902 z m -1.66437,0.960925 a 2.9660091,2.9660091 0 0 0 -4.05124,-1.085536 2.9660091,2.9660091 0 0 0 -1.08597,4.051505 2.9660091,2.9660091 0 0 0 4.05194,1.085705 2.9660091,2.9660091 0 0 0 1.08527,-4.051674 z"
       inkscape:transform-center-x="-0.65621675"
       inkscape:transform-center-y="0.00013044016" /><path
       id="path9380"
       style="fill:#ffffff;fill-opacity:1;stroke:#000000;stroke-width:0.1;stroke-dasharray:none;stroke-dashoffset:0"
       d="m 137.01209,52.170912 a 0.34099188,0.34099188 0 0 0 -0.34106,-0.341073 0.34099188,0.34099188 0 0 0 -0.34106,0.341076 0.34099188,0.34099188 0 0 0 0.34106,0.34106 0.34099188,0.34099188 0 0 0 0.34106,-0.341063 z m -1.92184,0 a 2.9660091,2.9660091 0 0 0 -2.96571,-2.965721 2.9660091,2.9660091 0 0 0 -2.96623,2.965721 2.9660091,2.9660091 0 0 0 2.96623,2.966218 2.9660091,2.9660091 0 0 0 2.96571,-2.966218 z"
       inkscape:transform-center-x="-0.96077983"
       inkscape:transform-center-y="6.7515359e-05" /><path
       id="path9382"
       style="fill:#ffffff;fill-opacity:1;stroke:#000000;stroke-width:0.1;stroke-dasharray:none;stroke-dashoffset:0"
       d="m 136.35736,54.614771 a 0.34099188,0.34099188 0 0 0 -0.12483,-0.465908 0.34099188,0.34099188 0 0 0 -0.46591,0.124851 0.34099188,0.34099188 0 0 0 0.12484,0.465896 0.34099188,0.34099188 0 0 0 0.4659,-0.124839 z m -1.66437,-0.96092 a 2.9660091,2.9660091 0 0 0 -1.08552,-4.051245 2.9660091,2.9660091 0 0 0 -4.05169,1.085275 2.9660091,2.9660091 0 0 0 1.08573,4.051935 2.9660091,2.9660091 0 0 0 4.05148,-1.085965 z"
       inkscape:transform-center-x="-0.6562762"
       inkscape:transform-center-y="-1.3699372e-05" /><path
       id="path9384"
       style="fill:#ffffff;fill-opacity:1;stroke:#000000;stroke-width:0.1;stroke-dasharray:none;stroke-dashoffset:0"
       d="m 134.56841,56.40385 a 0.34099188,0.34099188 0 0 0 0.12485,-0.465903 0.34099188,0.34099188 0 0 0 -0.46591,-0.124831 0.34099188,0.34099188 0 0 0 -0.12484,0.465898 0.34099188,0.34099188 0 0 0 0.4659,0.124836 z m -0.96092,-1.664366 a 2.9660091,2.9660091 0 0 0 1.08553,-4.051241 2.9660091,2.9660091 0 0 0 -4.0515,-1.085969 2.9660091,2.9660091 0 0 0 -1.0857,4.051943 2.9660091,2.9660091 0 0 0 4.05167,1.085267 z"
       inkscape:transform-center-x="0.00013090741"
       inkscape:transform-center-y="0.65621696" /><path
       id="path9386"
       style="fill:#ffffff;fill-opacity:1;stroke:#000000;stroke-width:0.1;stroke-dasharray:none;stroke-dashoffset:0"
       d="m 132.1246,57.058763 a 0.34099188,0.34099188 0 0 0 0.34107,-0.341059 0.34099188,0.34099188 0 0 0 -0.34107,-0.341062 0.34099188,0.34099188 0 0 0 -0.34106,0.34106 0.34099188,0.34099188 0 0 0 0.34106,0.341061 z m 0,-1.921843 a 2.9660091,2.9660091 0 0 0 2.96572,-2.965713 2.9660091,2.9660091 0 0 0 -2.96572,-2.966227 2.9660091,2.9660091 0 0 0 -2.96621,2.966236 2.9660091,2.9660091 0 0 0 2.96621,2.965704 z"
       inkscape:transform-center-x="6.5174763e-05"
       inkscape:transform-center-y="0.96077852" /><path
       id="path9388"
       style="fill:#ffffff;fill-opacity:1;stroke:#000000;stroke-width:0.1;stroke-dasharray:none;stroke-dashoffset:0"
       d="m 129.68074,56.404029 a 0.34099188,0.34099188 0 0 0 0.46591,-0.12483 0.34099188,0.34099188 0 0 0 -0.12485,-0.465904 0.34099188,0.34099188 0 0 0 -0.4659,0.124837 0.34099188,0.34099188 0 0 0 0.12484,0.465897 z m 0.96092,-1.664365 a 2.9660091,2.9660091 0 0 0 4.05125,-1.085522 2.9660091,2.9660091 0 0 0 -1.08528,-4.051688 2.9660091,2.9660091 0 0 0 -4.05193,1.08573 2.9660091,2.9660091 0 0 0 1.08596,4.05148 z"
       inkscape:transform-center-x="-1.4857263e-05"
       inkscape:transform-center-y="0.65627641" /><path
       id="path9390"
       style="fill:#ffffff;fill-opacity:1;stroke:#000000;stroke-width:0.1;stroke-dasharray:none;stroke-dashoffset:0"
       d="m 127.89166,54.615083 a 0.34099188,0.34099188 0 0 0 0.46591,0.124849 0.34099188,0.34099188 0 0 0 0.12483,-0.46591 0.34099188,0.34099188 0 0 0 -0.4659,-0.124838 0.34099188,0.34099188 0 0 0 -0.12484,0.465899 z m 1.66437,-0.960922 a 2.9660091,2.9660091 0 0 0 4.05124,1.085535 2.9660091,2.9660091 0 0 0 1.08597,-4.051505 2.9660091,2.9660091 0 0 0 -4.05194,-1.085695 2.9660091,2.9660091 0 0 0 -1.08527,4.051665 z"
       inkscape:transform-center-x="0.65621644"
       inkscape:transform-center-y="-0.0001285302" /><path
       id="path9392"
       style="fill:#ffffff;fill-opacity:1;stroke:#000000;stroke-width:0.1;stroke-dasharray:none;stroke-dashoffset:0"
       d="m 127.23675,52.17127 a 0.34099188,0.34099188 0 0 0 0.34106,0.341078 0.34099188,0.34099188 0 0 0 0.34106,-0.341075 0.34099188,0.34099188 0 0 0 -0.34106,-0.341063 0.34099188,0.34099188 0 0 0 -0.34106,0.34106 z m 1.92185,2e-6 a 2.9660091,2.9660091 0 0 0 2.9657,2.965721 2.9660091,2.9660091 0 0 0 2.96623,-2.965721 2.9660091,2.9660091 0 0 0 -2.96623,-2.966209 2.9660091,2.9660091 0 0 0 -2.9657,2.966209 z"
       inkscape:transform-center-x="0.96078017"
       inkscape:transform-center-y="-6.4980384e-05" /><path
       id="path9394"
       style="fill:#ffffff;fill-opacity:1;stroke:#000000;stroke-width:0.1;stroke-dasharray:none;stroke-dashoffset:0"
       d="m 127.89149,49.727411 a 0.34099188,0.34099188 0 0 0 0.12482,0.465912 0.34099188,0.34099188 0 0 0 0.46591,-0.124849 0.34099188,0.34099188 0 0 0 -0.12484,-0.465899 0.34099188,0.34099188 0 0 0 -0.46589,0.124836 z m 1.66437,0.960927 a 2.9660091,2.9660091 0 0 0 1.08551,4.05124 2.9660091,2.9660091 0 0 0 4.05169,-1.085275 2.9660091,2.9660091 0 0 0 -1.08573,-4.051927 2.9660091,2.9660091 0 0 0 -4.05147,1.085962 z"
       inkscape:transform-center-x="0.65627539"
       inkscape:transform-center-y="1.7524214e-05" /><path
       id="path9396"
       style="fill:#ffffff;fill-opacity:1;stroke:#000000;stroke-width:0.1;stroke-dasharray:none;stroke-dashoffset:0"
       d="m 129.68029,47.938145 a 0.34099188,0.34099188 0 0 0 -0.12486,0.465902 0.34099188,0.34099188 0 0 0 0.46591,0.124832 0.34099188,0.34099188 0 0 0 0.12484,-0.4659 0.34099188,0.34099188 0 0 0 -0.46589,-0.124834 z m 0.96092,1.664372 a 2.9660091,2.9660091 0 0 0 -1.08554,4.051232 2.9660091,2.9660091 0 0 0 4.0515,1.085969 2.9660091,2.9660091 0 0 0 1.0857,-4.051936 2.9660091,2.9660091 0 0 0 -4.05166,-1.085265 z"
       inkscape:transform-center-x="-0.00013224866"
       inkscape:transform-center-y="-0.65621551" /></g><g
     id="g9438"
     transform="translate(34.691928,1.8212708e-4)"><circle
       style="fill:#ffffff;fill-opacity:1;stroke:#000000;stroke-width:0.1;stroke-dasharray:none;stroke-dashoffset:0"
       id="circle9412"
       cx="132.12442"
       cy="52.171093"
       r="2.9660091" /><path
       id="path9414"
       style="fill:#ffffff;fill-opacity:1;stroke:#000000;stroke-width:0.1;stroke-dasharray:none;stroke-dashoffset:0"
       d="m 132.12424,47.283419 a 0.34099188,0.34099188 0 0 0 -0.34107,0.341064 0.34099188,0.34099188 0 0 0 0.34107,0.341065 0.34099188,0.34099188 0 0 0 0.34106,-0.341065 0.34099188,0.34099188 0 0 0 -0.34106,-0.341064 z m 0,1.921846 a 2.9660091,2.9660091 0 0 0 -2.96572,2.965711 2.9660091,2.9660091 0 0 0 2.96572,2.966227 2.9660091,2.9660091 0 0 0 2.96622,-2.966227 2.9660091,2.9660091 0 0 0 -2.96622,-2.965711 z"
       inkscape:transform-center-x="-6.9833984e-05"
       inkscape:transform-center-y="-0.96078199" /><path
       id="path9416"
       style="fill:#ffffff;fill-opacity:1;stroke:#000000;stroke-width:0.1;stroke-dasharray:none;stroke-dashoffset:0"
       d="m 134.5681,47.938153 a 0.34099188,0.34099188 0 0 0 -0.46591,0.124835 0.34099188,0.34099188 0 0 0 0.12485,0.465906 0.34099188,0.34099188 0 0 0 0.4659,-0.124841 0.34099188,0.34099188 0 0 0 -0.12484,-0.4659 z m -0.96092,1.664368 a 2.9660091,2.9660091 0 0 0 -4.05125,1.085521 2.9660091,2.9660091 0 0 0 1.08528,4.051688 2.9660091,2.9660091 0 0 0 4.05193,-1.085718 2.9660091,2.9660091 0 0 0 -1.08596,-4.051491 z"
       inkscape:transform-center-x="1.2816457e-05"
       inkscape:transform-center-y="-0.65627725" /><path
       id="path9418"
       style="fill:#ffffff;fill-opacity:1;stroke:#000000;stroke-width:0.1;stroke-dasharray:none;stroke-dashoffset:0"
       d="m 136.35718,49.727099 a 0.34099188,0.34099188 0 0 0 -0.46591,-0.124844 0.34099188,0.34099188 0 0 0 -0.12483,0.465911 0.34099188,0.34099188 0 0 0 0.4659,0.124835 0.34099188,0.34099188 0 0 0 0.12484,-0.465902 z m -1.66437,0.960925 a 2.9660091,2.9660091 0 0 0 -4.05124,-1.085536 2.9660091,2.9660091 0 0 0 -1.08597,4.051505 2.9660091,2.9660091 0 0 0 4.05194,1.085705 2.9660091,2.9660091 0 0 0 1.08527,-4.051674 z"
       inkscape:transform-center-x="-0.65621675"
       inkscape:transform-center-y="0.00013044016" /><path
       id="path9420"
       style="fill:#ffffff;fill-opacity:1;stroke:#000000;stroke-width:0.1;stroke-dasharray:none;stroke-dashoffset:0"
       d="m 137.01209,52.170912 a 0.34099188,0.34099188 0 0 0 -0.34106,-0.341073 0.34099188,0.34099188 0 0 0 -0.34106,0.341076 0.34099188,0.34099188 0 0 0 0.34106,0.34106 0.34099188,0.34099188 0 0 0 0.34106,-0.341063 z m -1.92184,0 a 2.9660091,2.9660091 0 0 0 -2.96571,-2.965721 2.9660091,2.9660091 0 0 0 -2.96623,2.965721 2.9660091,2.9660091 0 0 0 2.96623,2.966218 2.9660091,2.9660091 0 0 0 2.96571,-2.966218 z"
       inkscape:transform-center-x="-0.96077983"
       inkscape:transform-center-y="6.7515359e-05" /><path
       id="path9422"
       style="fill:#ffffff;fill-opacity:1;stroke:#000000;stroke-width:0.1;stroke-dasharray:none;stroke-dashoffset:0"
       d="m 136.35736,54.614771 a 0.34099188,0.34099188 0 0 0 -0.12483,-0.465908 0.34099188,0.34099188 0 0 0 -0.46591,0.124851 0.34099188,0.34099188 0 0 0 0.12484,0.465896 0.34099188,0.34099188 0 0 0 0.4659,-0.124839 z m -1.66437,-0.96092 a 2.9660091,2.9660091 0 0 0 -1.08552,-4.051245 2.9660091,2.9660091 0 0 0 -4.05169,1.085275 2.9660091,2.9660091 0 0 0 1.08573,4.051935 2.9660091,2.9660091 0 0 0 4.05148,-1.085965 z"
       inkscape:transform-center-x="-0.6562762"
       inkscape:transform-center-y="-1.3699372e-05" /><path
       id="path9424"
       style="fill:#ffffff;fill-opacity:1;stroke:#000000;stroke-width:0.1;stroke-dasharray:none;stroke-dashoffset:0"
       d="m 134.56841,56.40385 a 0.34099188,0.34099188 0 0 0 0.12485,-0.465903 0.34099188,0.34099188 0 0 0 -0.46591,-0.124831 0.34099188,0.34099188 0 0 0 -0.12484,0.465898 0.34099188,0.34099188 0 0 0 0.4659,0.124836 z m -0.96092,-1.664366 a 2.9660091,2.9660091 0 0 0 1.08553,-4.051241 2.9660091,2.9660091 0 0 0 -4.0515,-1.085969 2.9660091,2.9660091 0 0 0 -1.0857,4.051943 2.9660091,2.9660091 0 0 0 4.05167,1.085267 z"
       inkscape:transform-center-x="0.00013090741"
       inkscape:transform-center-y="0.65621696" /><path
       id="path9426"
       style="fill:#ffffff;fill-opacity:1;stroke:#000000;stroke-width:0.1;stroke-dasharray:none;stroke-dashoffset:0"
       d="m 132.1246,57.058763 a 0.34099188,0.34099188 0 0 0 0.34107,-0.341059 0.34099188,0.34099188 0 0 0 -0.34107,-0.341062 0.34099188,0.34099188 0 0 0 -0.34106,0.34106 0.34099188,0.34099188 0 0 0 0.34106,0.341061 z m 0,-1.921843 a 2.9660091,2.9660091 0 0 0 2.96572,-2.965713 2.9660091,2.9660091 0 0 0 -2.96572,-2.966227 2.9660091,2.9660091 0 0 0 -2.96621,2.966236 2.9660091,2.9660091 0 0 0 2.96621,2.965704 z"
       inkscape:transform-center-x="6.5174763e-05"
       inkscape:transform-center-y="0.96077852" /><path
       id="path9428"
       style="fill:#ffffff;fill-opacity:1;stroke:#000000;stroke-width:0.1;stroke-dasharray:none;stroke-dashoffset:0"
       d="m 129.68074,56.404029 a 0.34099188,0.34099188 0 0 0 0.46591,-0.12483 0.34099188,0.34099188 0 0 0 -0.12485,-0.465904 0.34099188,0.34099188 0 0 0 -0.4659,0.124837 0.34099188,0.34099188 0 0 0 0.12484,0.465897 z m 0.96092,-1.664365 a 2.9660091,2.9660091 0 0 0 4.05125,-1.085522 2.9660091,2.9660091 0 0 0 -1.08528,-4.051688 2.9660091,2.9660091 0 0 0 -4.05193,1.08573 2.9660091,2.9660091 0 0 0 1.08596,4.05148 z"
       inkscape:transform-center-x="-1.4857263e-05"
       inkscape:transform-center-y="0.65627641" /><path
       id="path9430"
       style="fill:#ffffff;fill-opacity:1;stroke:#000000;stroke-width:0.1;stroke-dasharray:none;stroke-dashoffset:0"
       d="m 127.89166,54.615083 a 0.34099188,0.34099188 0 0 0 0.46591,0.124849 0.34099188,0.34099188 0 0 0 0.12483,-0.46591 0.34099188,0.34099188 0 0 0 -0.4659,-0.124838 0.34099188,0.34099188 0 0 0 -0.12484,0.465899 z m 1.66437,-0.960922 a 2.9660091,2.9660091 0 0 0 4.05124,1.085535 2.9660091,2.9660091 0 0 0 1.08597,-4.051505 2.9660091,2.9660091 0 0 0 -4.05194,-1.085695 2.9660091,2.9660091 0 0 0 -1.08527,4.051665 z"
       inkscape:transform-center-x="0.65621644"
       inkscape:transform-center-y="-0.0001285302" /><path
       id="path9432"
       style="fill:#ffffff;fill-opacity:1;stroke:#000000;stroke-width:0.1;stroke-dasharray:none;stroke-dashoffset:0"
       d="m 127.23675,52.17127 a 0.34099188,0.34099188 0 0 0 0.34106,0.341078 0.34099188,0.34099188 0 0 0 0.34106,-0.341075 0.34099188,0.34099188 0 0 0 -0.34106,-0.341063 0.34099188,0.34099188 0 0 0 -0.34106,0.34106 z m 1.92185,2e-6 a 2.9660091,2.9660091 0 0 0 2.9657,2.965721 2.9660091,2.9660091 0 0 0 2.96623,-2.965721 2.9660091,2.9660091 0 0 0 -2.96623,-2.966209 2.9660091,2.9660091 0 0 0 -2.9657,2.966209 z"
       inkscape:transform-center-x="0.96078017"
       inkscape:transform-center-y="-6.4980384e-05" /><path
       id="path9434"
       style="fill:#ffffff;fill-opacity:1;stroke:#000000;stroke-width:0.1;stroke-dasharray:none;stroke-dashoffset:0"
       d="m 127.89149,49.727411 a 0.34099188,0.34099188 0 0 0 0.12482,0.465912 0.34099188,0.34099188 0 0 0 0.46591,-0.124849 0.34099188,0.34099188 0 0 0 -0.12484,-0.465899 0.34099188,0.34099188 0 0 0 -0.46589,0.124836 z m 1.66437,0.960927 a 2.9660091,2.9660091 0 0 0 1.08551,4.05124 2.9660091,2.9660091 0 0 0 4.05169,-1.085275 2.9660091,2.9660091 0 0 0 -1.08573,-4.051927 2.9660091,2.9660091 0 0 0 -4.05147,1.085962 z"
       inkscape:transform-center-x="0.65627539"
       inkscape:transform-center-y="1.7524214e-05" /><path
       id="path9436"
       style="fill:#ffffff;fill-opacity:1;stroke:#000000;stroke-width:0.1;stroke-dasharray:none;stroke-dashoffset:0"
       d="m 129.68029,47.938145 a 0.34099188,0.34099188 0 0 0 -0.12486,0.465902 0.34099188,0.34099188 0 0 0 0.46591,0.124832 0.34099188,0.34099188 0 0 0 0.12484,-0.4659 0.34099188,0.34099188 0 0 0 -0.46589,-0.124834 z m 0.96092,1.664372 a 2.9660091,2.9660091 0 0 0 -1.08554,4.051232 2.9660091,2.9660091 0 0 0 4.0515,1.085969 2.9660091,2.9660091 0 0 0 1.0857,-4.051936 2.9660091,2.9660091 0 0 0 -4.05166,-1.085265 z"
       inkscape:transform-center-x="-0.00013224866"
       inkscape:transform-center-y="-0.65621551" /></g><circle
     style="fill:#ffffff;fill-opacity:1;stroke:#000000;stroke-width:0.15;stroke-dasharray:none;stroke-dashoffset:0"
     id="circle8894"
     cx="149.47047"
     cy="52.171093"
     r="2.9660091" /><circle
     style="fill:#ffffff;fill-opacity:1;stroke:#000000;stroke-width:0.15;stroke-dasharray:none;stroke-dashoffset:0"
     id="circle8908"
     cx="166.81653"
     cy="52.171093"
     r="2.9660091" /><g
     id="g9358"><circle
       style="fill:#ffffff;fill-opacity:1;stroke:#000000;stroke-width:0.1;stroke-dasharray:none;stroke-dashoffset:0"
       id="path8880"
       cx="132.12442"
       cy="52.171093"
       r="2.9660091" /><path
       id="circle8948"
       style="fill:#ffffff;fill-opacity:1;stroke:#000000;stroke-width:0.1;stroke-dasharray:none;stroke-dashoffset:0"
       d="m 132.12424,47.283419 a 0.34099188,0.34099188 0 0 0 -0.34107,0.341064 0.34099188,0.34099188 0 0 0 0.34107,0.341065 0.34099188,0.34099188 0 0 0 0.34106,-0.341065 0.34099188,0.34099188 0 0 0 -0.34106,-0.341064 z m 0,1.921846 a 2.9660091,2.9660091 0 0 0 -2.96572,2.965711 2.9660091,2.9660091 0 0 0 2.96572,2.966227 2.9660091,2.9660091 0 0 0 2.96622,-2.966227 2.9660091,2.9660091 0 0 0 -2.96622,-2.965711 z"
       inkscape:transform-center-x="-6.9833984e-05"
       inkscape:transform-center-y="-0.96078199" /><path
       id="path9117"
       style="fill:#ffffff;fill-opacity:1;stroke:#000000;stroke-width:0.1;stroke-dasharray:none;stroke-dashoffset:0"
       d="m 134.5681,47.938153 a 0.34099188,0.34099188 0 0 0 -0.46591,0.124835 0.34099188,0.34099188 0 0 0 0.12485,0.465906 0.34099188,0.34099188 0 0 0 0.4659,-0.124841 0.34099188,0.34099188 0 0 0 -0.12484,-0.4659 z m -0.96092,1.664368 a 2.9660091,2.9660091 0 0 0 -4.05125,1.085521 2.9660091,2.9660091 0 0 0 1.08528,4.051688 2.9660091,2.9660091 0 0 0 4.05193,-1.085718 2.9660091,2.9660091 0 0 0 -1.08596,-4.051491 z"
       inkscape:transform-center-x="1.2816457e-05"
       inkscape:transform-center-y="-0.65627725" /><path
       id="path9131"
       style="fill:#ffffff;fill-opacity:1;stroke:#000000;stroke-width:0.1;stroke-dasharray:none;stroke-dashoffset:0"
       d="m 136.35718,49.727099 a 0.34099188,0.34099188 0 0 0 -0.46591,-0.124844 0.34099188,0.34099188 0 0 0 -0.12483,0.465911 0.34099188,0.34099188 0 0 0 0.4659,0.124835 0.34099188,0.34099188 0 0 0 0.12484,-0.465902 z m -1.66437,0.960925 a 2.9660091,2.9660091 0 0 0 -4.05124,-1.085536 2.9660091,2.9660091 0 0 0 -1.08597,4.051505 2.9660091,2.9660091 0 0 0 4.05194,1.085705 2.9660091,2.9660091 0 0 0 1.08527,-4.051674 z"
       inkscape:transform-center-x="-0.65621675"
       inkscape:transform-center-y="0.00013044016" /><path
       id="path9145"
       style="fill:#ffffff;fill-opacity:1;stroke:#000000;stroke-width:0.1;stroke-dasharray:none;stroke-dashoffset:0"
       d="m 137.01209,52.170912 a 0.34099188,0.34099188 0 0 0 -0.34106,-0.341073 0.34099188,0.34099188 0 0 0 -0.34106,0.341076 0.34099188,0.34099188 0 0 0 0.34106,0.34106 0.34099188,0.34099188 0 0 0 0.34106,-0.341063 z m -1.92184,0 a 2.9660091,2.9660091 0 0 0 -2.96571,-2.965721 2.9660091,2.9660091 0 0 0 -2.96623,2.965721 2.9660091,2.9660091 0 0 0 2.96623,2.966218 2.9660091,2.9660091 0 0 0 2.96571,-2.966218 z"
       inkscape:transform-center-x="-0.96077983"
       inkscape:transform-center-y="6.7515359e-05" /><path
       id="path9159"
       style="fill:#ffffff;fill-opacity:1;stroke:#000000;stroke-width:0.1;stroke-dasharray:none;stroke-dashoffset:0"
       d="m 136.35736,54.614771 a 0.34099188,0.34099188 0 0 0 -0.12483,-0.465908 0.34099188,0.34099188 0 0 0 -0.46591,0.124851 0.34099188,0.34099188 0 0 0 0.12484,0.465896 0.34099188,0.34099188 0 0 0 0.4659,-0.124839 z m -1.66437,-0.96092 a 2.9660091,2.9660091 0 0 0 -1.08552,-4.051245 2.9660091,2.9660091 0 0 0 -4.05169,1.085275 2.9660091,2.9660091 0 0 0 1.08573,4.051935 2.9660091,2.9660091 0 0 0 4.05148,-1.085965 z"
       inkscape:transform-center-x="-0.6562762"
       inkscape:transform-center-y="-1.3699372e-05" /><path
       id="path9173"
       style="fill:#ffffff;fill-opacity:1;stroke:#000000;stroke-width:0.1;stroke-dasharray:none;stroke-dashoffset:0"
       d="m 134.56841,56.40385 a 0.34099188,0.34099188 0 0 0 0.12485,-0.465903 0.34099188,0.34099188 0 0 0 -0.46591,-0.124831 0.34099188,0.34099188 0 0 0 -0.12484,0.465898 0.34099188,0.34099188 0 0 0 0.4659,0.124836 z m -0.96092,-1.664366 a 2.9660091,2.9660091 0 0 0 1.08553,-4.051241 2.9660091,2.9660091 0 0 0 -4.0515,-1.085969 2.9660091,2.9660091 0 0 0 -1.0857,4.051943 2.9660091,2.9660091 0 0 0 4.05167,1.085267 z"
       inkscape:transform-center-x="0.00013090741"
       inkscape:transform-center-y="0.65621696" /><path
       id="path9187"
       style="fill:#ffffff;fill-opacity:1;stroke:#000000;stroke-width:0.1;stroke-dasharray:none;stroke-dashoffset:0"
       d="m 132.1246,57.058763 a 0.34099188,0.34099188 0 0 0 0.34107,-0.341059 0.34099188,0.34099188 0 0 0 -0.34107,-0.341062 0.34099188,0.34099188 0 0 0 -0.34106,0.34106 0.34099188,0.34099188 0 0 0 0.34106,0.341061 z m 0,-1.921843 a 2.9660091,2.9660091 0 0 0 2.96572,-2.965713 2.9660091,2.9660091 0 0 0 -2.96572,-2.966227 2.9660091,2.9660091 0 0 0 -2.96621,2.966236 2.9660091,2.9660091 0 0 0 2.96621,2.965704 z"
       inkscape:transform-center-x="6.5174763e-05"
       inkscape:transform-center-y="0.96077852" /><path
       id="path9201"
       style="fill:#ffffff;fill-opacity:1;stroke:#000000;stroke-width:0.1;stroke-dasharray:none;stroke-dashoffset:0"
       d="m 129.68074,56.404029 a 0.34099188,0.34099188 0 0 0 0.46591,-0.12483 0.34099188,0.34099188 0 0 0 -0.12485,-0.465904 0.34099188,0.34099188 0 0 0 -0.4659,0.124837 0.34099188,0.34099188 0 0 0 0.12484,0.465897 z m 0.96092,-1.664365 a 2.9660091,2.9660091 0 0 0 4.05125,-1.085522 2.9660091,2.9660091 0 0 0 -1.08528,-4.051688 2.9660091,2.9660091 0 0 0 -4.05193,1.08573 2.9660091,2.9660091 0 0 0 1.08596,4.05148 z"
       inkscape:transform-center-x="-1.4857263e-05"
       inkscape:transform-center-y="0.65627641" /><path
       id="path9215"
       style="fill:#ffffff;fill-opacity:1;stroke:#000000;stroke-width:0.1;stroke-dasharray:none;stroke-dashoffset:0"
       d="m 127.89166,54.615083 a 0.34099188,0.34099188 0 0 0 0.46591,0.124849 0.34099188,0.34099188 0 0 0 0.12483,-0.46591 0.34099188,0.34099188 0 0 0 -0.4659,-0.124838 0.34099188,0.34099188 0 0 0 -0.12484,0.465899 z m 1.66437,-0.960922 a 2.9660091,2.9660091 0 0 0 4.05124,1.085535 2.9660091,2.9660091 0 0 0 1.08597,-4.051505 2.9660091,2.9660091 0 0 0 -4.05194,-1.085695 2.9660091,2.9660091 0 0 0 -1.08527,4.051665 z"
       inkscape:transform-center-x="0.65621644"
       inkscape:transform-center-y="-0.0001285302" /><path
       id="path9229"
       style="fill:#ffffff;fill-opacity:1;stroke:#000000;stroke-width:0.1;stroke-dasharray:none;stroke-dashoffset:0"
       d="m 127.23675,52.17127 a 0.34099188,0.34099188 0 0 0 0.34106,0.341078 0.34099188,0.34099188 0 0 0 0.34106,-0.341075 0.34099188,0.34099188 0 0 0 -0.34106,-0.341063 0.34099188,0.34099188 0 0 0 -0.34106,0.34106 z m 1.92185,2e-6 a 2.9660091,2.9660091 0 0 0 2.9657,2.965721 2.9660091,2.9660091 0 0 0 2.96623,-2.965721 2.9660091,2.9660091 0 0 0 -2.96623,-2.966209 2.9660091,2.9660091 0 0 0 -2.9657,2.966209 z"
       inkscape:transform-center-x="0.96078017"
       inkscape:transform-center-y="-6.4980384e-05" /><path
       id="path9243"
       style="fill:#ffffff;fill-opacity:1;stroke:#000000;stroke-width:0.1;stroke-dasharray:none;stroke-dashoffset:0"
       d="m 127.89149,49.727411 a 0.34099188,0.34099188 0 0 0 0.12482,0.465912 0.34099188,0.34099188 0 0 0 0.46591,-0.124849 0.34099188,0.34099188 0 0 0 -0.12484,-0.465899 0.34099188,0.34099188 0 0 0 -0.46589,0.124836 z m 1.66437,0.960927 a 2.9660091,2.9660091 0 0 0 1.08551,4.05124 2.9660091,2.9660091 0 0 0 4.05169,-1.085275 2.9660091,2.9660091 0 0 0 -1.08573,-4.051927 2.9660091,2.9660091 0 0 0 -4.05147,1.085962 z"
       inkscape:transform-center-x="0.65627539"
       inkscape:transform-center-y="1.7524214e-05" /><path
       id="path9257"
       style="fill:#ffffff;fill-opacity:1;stroke:#000000;stroke-width:0.1;stroke-dasharray:none;stroke-dashoffset:0"
       d="m 129.68029,47.938145 a 0.34099188,0.34099188 0 0 0 -0.12486,0.465902 0.34099188,0.34099188 0 0 0 0.46591,0.124832 0.34099188,0.34099188 0 0 0 0.12484,-0.4659 0.34099188,0.34099188 0 0 0 -0.46589,-0.124834 z m 0.96092,1.664372 a 2.9660091,2.9660091 0 0 0 -1.08554,4.051232 2.9660091,2.9660091 0 0 0 4.0515,1.085969 2.9660091,2.9660091 0 0 0 1.0857,-4.051936 2.9660091,2.9660091 0 0 0 -4.05166,-1.085265 z"
       inkscape:transform-center-x="-0.00013224866"
       inkscape:transform-center-y="-0.65621551" /></g><circle
     style="fill:#ffffff;fill-opacity:1;stroke:#000000;stroke-width:0.15;stroke-dasharray:none;stroke-dashoffset:0"
     id="circle9331"
     cx="149.47047"
     cy="52.171093"
     r="2.9660091" /><circle
     style="fill:#ffffff;fill-opacity:1;stroke:#000000;stroke-width:0.15;stroke-dasharray:none;stroke-dashoffset:0"
     id="circle9452"
     cx="132.14906"
     cy="52.146282"
     r="2.9660091" /></svg>
