<?xml version="1.0" encoding="UTF-8" standalone="no"?>
<!-- Created with Inkscape (http://www.inkscape.org/) -->

<svg
   width="210mm"
   height="297mm"
   viewBox="0 0 210 297"
   version="1.1"
   id="svg5"
   sodipodi:docname="ENF.svg"
   inkscape:version="1.2.2 (1:1.2.2+202305151914+b0a8486541)"
   xmlns:inkscape="http://www.inkscape.org/namespaces/inkscape"
   xmlns:sodipodi="http://sodipodi.sourceforge.net/DTD/sodipodi-0.dtd"
   xmlns="http://www.w3.org/2000/svg"
   xmlns:svg="http://www.w3.org/2000/svg"
   xmlns:ns1="http://www.iki.fi/pav/software/textext/">
  <sodipodi:namedview
     id="namedview7"
     pagecolor="#ffffff"
     bordercolor="#000000"
     borderopacity="0.25"
     inkscape:showpageshadow="2"
     inkscape:pageopacity="0.0"
     inkscape:pagecheckerboard="0"
     inkscape:deskcolor="#d1d1d1"
     inkscape:document-units="mm"
     showgrid="false"
     inkscape:zoom="1.2220607"
     inkscape:cx="262.26194"
     inkscape:cy="216.4377"
     inkscape:window-width="1846"
     inkscape:window-height="1136"
     inkscape:window-x="74"
     inkscape:window-y="27"
     inkscape:window-maximized="1"
     inkscape:current-layer="layer1" />
  <defs
     id="defs2">
    <marker
       style="overflow:visible"
       id="Arrow1"
       refX="-0.49489999"
       refY="1.4474259e-10"
       orient="auto-start-reverse"
       inkscape:stockid="Arrow1"
       markerWidth="7.5355682"
       markerHeight="5.3916831"
       viewBox="0 0 4.0606602 6.7071068"
       inkscape:isstock="true"
       inkscape:collect="always"
       preserveAspectRatio="none">
      <path
         style="fill:none;stroke:context-stroke;stroke-width:1;stroke-linecap:butt"
         d="M 3,-3 0,0 3,3"
         id="path5057"
         transform="rotate(180,0.125,0)"
         sodipodi:nodetypes="ccc" />
    </marker>
    <marker
       style="overflow:visible"
       id="Stop"
       refX="0"
       refY="0"
       orient="auto"
       inkscape:stockid="Stop"
       markerWidth="1"
       markerHeight="8"
       viewBox="0 0 1 8"
       inkscape:isstock="true"
       inkscape:collect="always"
       preserveAspectRatio="xMidYMid">
      <path
         style="fill:none;stroke:context-stroke;stroke-width:1"
         d="M 0,4 V -4"
         id="path171" />
    </marker>
    <marker
       style="overflow:visible"
       id="TriangleStart"
       refX="0"
       refY="0"
       orient="auto-start-reverse"
       inkscape:stockid="TriangleStart"
       markerWidth="5.3244081"
       markerHeight="6.155385"
       viewBox="0 0 5.3244081 6.1553851"
       inkscape:isstock="true"
       inkscape:collect="always"
       preserveAspectRatio="xMidYMid">
      <path
         transform="scale(0.5)"
         style="fill:context-stroke;fill-rule:evenodd;stroke:context-stroke;stroke-width:1pt"
         d="M 5.77,0 -2.88,5 V -5 Z"
         id="path135" />
    </marker>
    <marker
       style="overflow:visible"
       id="Arrow1L"
       refX="0"
       refY="0"
       orient="auto-start-reverse"
       inkscape:stockid="Arrow1L"
       markerWidth="8.75"
       markerHeight="5"
       viewBox="0 0 8.75 5"
       inkscape:isstock="true"
       inkscape:collect="always"
       preserveAspectRatio="xMidYMid">
      <path
         style="fill:context-stroke;fill-rule:evenodd;stroke:none"
         d="M 0,0 5,-5 -12.5,0 5,5 Z"
         id="arrow1L"
         transform="scale(-0.5)" />
    </marker>
  </defs>
  <g
     inkscape:label="Layer 1"
     inkscape:groupmode="layer"
     id="layer1">
    <path
       sodipodi:type="star"
       style="fill:#ffffff;stroke:#000000;stroke-width:0.343958"
       id="path2240"
       inkscape:flatsided="true"
       sodipodi:sides="3"
       sodipodi:cx="27.557652"
       sodipodi:cy="57.942947"
       sodipodi:r1="6.1036258"
       sodipodi:r2="3.0518131"
       sodipodi:arg1="0.52359878"
       sodipodi:arg2="1.5707963"
       inkscape:rounded="0"
       inkscape:randomized="0"
       d="m 32.843546,60.99476 -10.571789,0 5.285895,-9.155438 z"
       inkscape:transform-center-y="-1.5259073" />
    <path
       sodipodi:type="star"
       style="fill:#ffffff;stroke:#000000;stroke-width:0.343958"
       id="path2454"
       inkscape:flatsided="true"
       sodipodi:sides="3"
       sodipodi:cx="27.557652"
       sodipodi:cy="57.942947"
       sodipodi:r1="6.1036258"
       sodipodi:r2="3.0518131"
       sodipodi:arg1="0.52359878"
       sodipodi:arg2="1.5707963"
       inkscape:rounded="0"
       inkscape:randomized="0"
       d="m 32.843546,60.99476 -10.571789,0 5.285895,-9.155438 z"
       inkscape:transform-center-y="-1.5259073"
       transform="translate(111.63882)" />
    <rect
       style="fill:#ffffff;stroke:#000000;stroke-width:0.344;stroke-dasharray:none"
       id="rect2508"
       width="111.63882"
       height="9.7388058"
       x="27.557652"
       y="42.100513" />
    <path
       style="fill:#ffffff;stroke:#000000;stroke-width:0.343958;stroke-dasharray:1.37583196,1.37583196;stroke-dashoffset:0"
       d="M 139.19647,46.969915 H 101.50061"
       id="path2573" />
    <path
       style="fill:#000080;stroke:#000080;stroke-width:0.343958;stroke-dasharray:none;stroke-dashoffset:0;marker-end:url(#Arrow1L)"
       d="m 83.37706,27.297501 v 11.96844"
       id="path2629" />
    <path
       style="fill:#800000;stroke:#800000;stroke-width:0.343958;stroke-dasharray:none;stroke-dashoffset:0;marker-start:url(#Stop);marker-end:url(#TriangleStart)"
       d="m 83.37706,52.368484 v 7.029347"
       id="path2950" />
    <g
       transform="matrix(0.599723,0,0,0.599723,76.311194,32.323304)"
       ns1:version="1.8.2"
       ns1:texconverter="pdflatex"
       ns1:pdfconverter="inkscape"
       ns1:text="$F$"
       ns1:preamble="/home/bleyerj/texmf/tex/latex/mystyle/mystyle.sty"
       ns1:scale="1.7"
       ns1:alignment="middle center"
       ns1:stroke-to-path="0"
       ns1:jacobian_sqrt="0.599723"
       id="g3201"
       style="fill:#000080;fill-opacity:0.80000001">
      <defs
         id="id-110cc99a-77af-450b-8a16-bab6ec602ebe">
        <g
           id="id-59e0140c-4b9f-4848-96fb-b2fd5bf4394a">
          <symbol
             overflow="visible"
             id="id-06aaab4f-2afa-4eb7-bce5-854374df46dc">
            <path
               style="stroke:none;stroke-width:0"
               d=""
               id="id-76957523-b313-43dc-b23d-c482eb0f8e2a" />
          </symbol>
          <symbol
             overflow="visible"
             id="id-00ad45c8-f264-4cfc-8785-a62a396da3f7">
            <path
               style="stroke:none;stroke-width:0"
               d="m 3.015625,-3.234375 h 0.96875 c 0.75,0 0.828125,0.15625 0.828125,0.4375 0,0.078125 0,0.1875 -0.0625,0.5 C 4.71875,-2.25 4.71875,-2.21875 4.71875,-2.1875 c 0,0.078125 0.0625,0.109375 0.109375,0.109375 0.109375,0 0.109375,-0.03125 0.15625,-0.203125 L 5.53125,-4.453125 C 5.5625,-4.5625 5.5625,-4.578125 5.5625,-4.609375 5.5625,-4.625 5.546875,-4.71875 5.4375,-4.71875 5.34375,-4.71875 5.328125,-4.671875 5.296875,-4.5 5.078125,-3.734375 4.859375,-3.546875 4,-3.546875 H 3.09375 l 0.640625,-2.53125 C 3.828125,-6.4375 3.84375,-6.46875 4.28125,-6.46875 h 1.3125 c 1.21875,0 1.453125,0.328125 1.453125,1.09375 0,0.234375 0,0.265625 -0.03125,0.546875 C 7,-4.703125 7,-4.6875 7,-4.65625 c 0,0.046875 0.03125,0.125 0.125,0.125 0.109375,0 0.109375,-0.0625 0.125,-0.25 L 7.453125,-6.515625 C 7.484375,-6.78125 7.4375,-6.78125 7.1875,-6.78125 H 2.296875 c -0.1875,0 -0.296875,0 -0.296875,0.203125 0,0.109375 0.09375,0.109375 0.28125,0.109375 0.375,0 0.65625,0 0.65625,0.171875 0,0.046875 0,0.0625 -0.0625,0.25 L 1.5625,-0.78125 c -0.09375,0.390625 -0.109375,0.46875 -0.90625,0.46875 -0.171875,0 -0.28125,0 -0.28125,0.1875 C 0.375,0 0.5,0 0.53125,0 0.8125,0 1.5625,-0.03125 1.84375,-0.03125 2.171875,-0.03125 3,0 3.328125,0 3.421875,0 3.53125,0 3.53125,-0.1875 3.53125,-0.265625 3.484375,-0.296875 3.484375,-0.296875 3.453125,-0.3125 3.421875,-0.3125 3.203125,-0.3125 c -0.21875,0 -0.265625,0 -0.515625,-0.015625 -0.296875,-0.03125 -0.328125,-0.078125 -0.328125,-0.203125 0,-0.015625 0,-0.078125 0.046875,-0.21875 z m 0,0"
               id="id-a0c0e462-01df-4d24-a802-7145dfd50ecd" />
          </symbol>
        </g>
      </defs>
      <g
         id="id-d8bccc50-ed67-44ef-b7a7-ca89fe8c08ce"
         transform="translate(-149.087,-127.984)"
         style="fill:#000080;fill-opacity:0.80000001">
        <g
           style="fill:#000080;fill-opacity:0.80000001"
           id="id-aa74fef5-c158-48ee-965c-a631dfff5f8c">
          <g
             transform="translate(148.712,134.765)"
             id="g3197"
             style="fill:#000080;fill-opacity:0.80000001">
            <path
               style="stroke:none;stroke-width:0;fill:#000080;fill-opacity:0.80000001"
               d="m 3.015625,-3.234375 h 0.96875 c 0.75,0 0.828125,0.15625 0.828125,0.4375 0,0.078125 0,0.1875 -0.0625,0.5 C 4.71875,-2.25 4.71875,-2.21875 4.71875,-2.1875 c 0,0.078125 0.0625,0.109375 0.109375,0.109375 0.109375,0 0.109375,-0.03125 0.15625,-0.203125 L 5.53125,-4.453125 C 5.5625,-4.5625 5.5625,-4.578125 5.5625,-4.609375 5.5625,-4.625 5.546875,-4.71875 5.4375,-4.71875 5.34375,-4.71875 5.328125,-4.671875 5.296875,-4.5 5.078125,-3.734375 4.859375,-3.546875 4,-3.546875 H 3.09375 l 0.640625,-2.53125 C 3.828125,-6.4375 3.84375,-6.46875 4.28125,-6.46875 h 1.3125 c 1.21875,0 1.453125,0.328125 1.453125,1.09375 0,0.234375 0,0.265625 -0.03125,0.546875 C 7,-4.703125 7,-4.6875 7,-4.65625 c 0,0.046875 0.03125,0.125 0.125,0.125 0.109375,0 0.109375,-0.0625 0.125,-0.25 L 7.453125,-6.515625 C 7.484375,-6.78125 7.4375,-6.78125 7.1875,-6.78125 H 2.296875 c -0.1875,0 -0.296875,0 -0.296875,0.203125 0,0.109375 0.09375,0.109375 0.28125,0.109375 0.375,0 0.65625,0 0.65625,0.171875 0,0.046875 0,0.0625 -0.0625,0.25 L 1.5625,-0.78125 c -0.09375,0.390625 -0.109375,0.46875 -0.90625,0.46875 -0.171875,0 -0.28125,0 -0.28125,0.1875 C 0.375,0 0.5,0 0.53125,0 0.8125,0 1.5625,-0.03125 1.84375,-0.03125 2.171875,-0.03125 3,0 3.328125,0 3.421875,0 3.53125,0 3.53125,-0.1875 3.53125,-0.265625 3.484375,-0.296875 3.484375,-0.296875 3.453125,-0.3125 3.421875,-0.3125 3.203125,-0.3125 c -0.21875,0 -0.265625,0 -0.515625,-0.015625 -0.296875,-0.03125 -0.328125,-0.078125 -0.328125,-0.203125 0,-0.015625 0,-0.078125 0.046875,-0.21875 z m 0,0"
               id="id-c523ed09-b8e1-4989-b286-b1ea74023377" />
          </g>
        </g>
      </g>
    </g>
    <g
       transform="matrix(0.599723 0 0 0.599723 76.2294 54.4691)"
       ns1:version="1.8.2"
       ns1:texconverter="pdflatex"
       ns1:pdfconverter="inkscape"
       ns1:text="$\\Delta$"
       ns1:preamble="/home/bleyerj/texmf/tex/latex/mystyle/mystyle.sty"
       ns1:scale="1.7"
       ns1:alignment="middle center"
       ns1:stroke-to-path="0"
       ns1:jacobian_sqrt="0.599723"
       style="fill:#800000;fill-opacity:1;stroke-width:0"
       id="g4017">
      <defs
         id="id-a6b7490f-253d-47f6-925b-d93c1686e618"
         style="fill:#000080;fill-opacity:0.8;stroke-width:0">
        <g
           id="id-0a724dc5-be60-4739-9434-48b68ec7f484"
           style="fill:#000080;fill-opacity:0.8;stroke-width:0">
          <symbol
             overflow="visible"
             id="id-d456c836-e11e-407d-b2f7-f3ae60c58db1"
             style="fill:#000080;fill-opacity:0.8;stroke-width:0">
            <path
               style="stroke:#000080;fill:#000080;fill-opacity:0.8;stroke-width:0"
               d=""
               id="id-c6d59a1e-1410-496a-b754-c3110754a4ca" />
          </symbol>
          <symbol
             overflow="visible"
             id="id-eef1e2ca-efdf-4bbd-93e4-b2f06b6e7f1b"
             style="fill:#000080;fill-opacity:0.8;stroke-width:0">
            <path
               style="stroke:#000080;fill:#000080;fill-opacity:0.8;stroke-width:0"
               d="m 4.40625,-6.953125 c -0.0625,-0.140625 -0.09375,-0.1875 -0.265625,-0.1875 -0.15625,0 -0.1875,0.046875 -0.25,0.1875 l -3.375,6.75 C 0.46875,-0.109375 0.46875,-0.09375 0.46875,-0.078125 0.46875,0 0.53125,0 0.6875,0 h 6.921875 c 0.15625,0 0.21875,0 0.21875,-0.078125 0,-0.015625 0,-0.03125 -0.046875,-0.125 z m -0.578125,0.8125 2.6875,5.390625 h -5.375 z m 0,0"
               id="id-8e866c6c-4e31-4c7d-bb2b-29685e30738f" />
          </symbol>
        </g>
      </defs>
      <g
         id="id-53c94466-80c3-4727-a18e-21e119b4b6a4"
         transform="translate(-149.181, -127.624)"
         style="fill:#800000;fill-opacity:1;stroke-width:0">
        <g
           style="fill:#800000;fill-opacity:1;stroke-width:0"
           id="id-b6f82b53-eb16-480c-bd77-adeb20cd05fe">
          <g
             transform="translate(148.712, 134.765)"
             style="fill:#800000;fill-opacity:1;stroke-width:0"
             id="g4089">
            <path
               style="stroke:#000080;fill:#800000;fill-opacity:1;stroke-width:0"
               d="m 4.40625,-6.953125 c -0.0625,-0.140625 -0.09375,-0.1875 -0.265625,-0.1875 -0.15625,0 -0.1875,0.046875 -0.25,0.1875 l -3.375,6.75 C 0.46875,-0.109375 0.46875,-0.09375 0.46875,-0.078125 0.46875,0 0.53125,0 0.6875,0 h 6.921875 c 0.15625,0 0.21875,0 0.21875,-0.078125 0,-0.015625 0,-0.03125 -0.046875,-0.125 z m -0.578125,0.8125 2.6875,5.390625 h -5.375 z m 0,0"
               id="id-8eae348b-ebc3-41fd-b2ae-53d1f0edf937" />
          </g>
        </g>
      </g>
    </g>
    <path
       style="fill:#000000;fill-opacity:1;stroke:#000000;stroke-width:0.244;stroke-dasharray:none;stroke-dashoffset:0;marker-start:url(#Arrow1);marker-end:url(#Arrow1)"
       d="M 27.55765,64.231392 H 139.19647"
       id="path4470" />
    <path
       style="fill:#000000;fill-opacity:1;stroke:#000000;stroke-width:0.244;stroke-dasharray:none;stroke-dashoffset:0;marker-start:url(#Arrow1);marker-end:url(#Arrow1)"
       d="m 102.50968,38.79143 h 35.67771"
       id="path5278"
       sodipodi:nodetypes="cc" />
    <g
       transform="matrix(0.599723,0,0,0.599723,81.573431,67.843832)"
       ns1:version="1.8.2"
       ns1:texconverter="pdflatex"
       ns1:pdfconverter="inkscape"
       ns1:text="$L$"
       ns1:preamble="/home/bleyerj/texmf/tex/latex/mystyle/mystyle.sty"
       ns1:scale="1.7"
       ns1:alignment="middle center"
       ns1:stroke-to-path="0"
       ns1:jacobian_sqrt="0.599723"
       id="g5385">
      <defs
         id="id-45dab551-c7b1-4753-8ce7-8297c6fb5003">
        <g
           id="id-4691ec5a-3a38-4c8e-885a-50b0e20fa3d0">
          <symbol
             overflow="visible"
             id="id-59cc3bc1-aa41-4428-8100-6c775b21155a">
            <path
               style="stroke:none;stroke-width:0"
               d=""
               id="id-58750bc4-0a26-4156-a8a8-bb0d69197c68" />
          </symbol>
          <symbol
             overflow="visible"
             id="id-e6d80ef4-d09b-4be6-b3b0-7a3a120fcfd8">
            <path
               style="stroke:none;stroke-width:0"
               d="M 3.734375,-6.03125 C 3.8125,-6.390625 3.84375,-6.5 4.78125,-6.5 c 0.296875,0 0.375,0 0.375,-0.1875 0,-0.125 -0.109375,-0.125 -0.15625,-0.125 -0.328125,0 -1.140625,0.03125 -1.46875,0.03125 -0.296875,0 -1.03125,-0.03125 -1.328125,-0.03125 -0.0625,0 -0.1875,0 -0.1875,0.203125 0,0.109375 0.09375,0.109375 0.28125,0.109375 0.015625,0 0.203125,0 0.375,0.015625 0.171875,0.03125 0.265625,0.03125 0.265625,0.171875 0,0.03125 0,0.0625 -0.03125,0.1875 L 1.5625,-0.78125 c -0.09375,0.390625 -0.109375,0.46875 -0.90625,0.46875 -0.171875,0 -0.265625,0 -0.265625,0.203125 C 0.390625,0 0.484375,0 0.65625,0 h 4.625 C 5.515625,0 5.515625,0 5.578125,-0.171875 L 6.375,-2.328125 c 0.03125,-0.109375 0.03125,-0.125 0.03125,-0.140625 0,-0.03125 -0.03125,-0.109375 -0.109375,-0.109375 -0.09375,0 -0.109375,0.0625 -0.171875,0.21875 -0.34375,0.90625 -0.78125,2.046875 -2.5,2.046875 H 2.6875 c -0.140625,0 -0.171875,0 -0.21875,0 -0.109375,-0.015625 -0.140625,-0.03125 -0.140625,-0.109375 0,-0.03125 0,-0.046875 0.046875,-0.21875 z m 0,0"
               id="id-f0836e24-07c0-4586-8c07-82c0e7b3bbb0" />
          </symbol>
        </g>
      </defs>
      <g
         id="id-e6657c6a-7d2f-4b50-923b-55aabaa58f4f"
         transform="translate(-149.103,-127.953)">
        <g
           style="fill:#000000;fill-opacity:1"
           id="id-43bd4199-a29c-4f23-8a39-af075e83ca45">
          <g
             transform="translate(148.712,134.765)"
             id="g5381">
            <path
               style="stroke:none;stroke-width:0"
               d="M 3.734375,-6.03125 C 3.8125,-6.390625 3.84375,-6.5 4.78125,-6.5 c 0.296875,0 0.375,0 0.375,-0.1875 0,-0.125 -0.109375,-0.125 -0.15625,-0.125 -0.328125,0 -1.140625,0.03125 -1.46875,0.03125 -0.296875,0 -1.03125,-0.03125 -1.328125,-0.03125 -0.0625,0 -0.1875,0 -0.1875,0.203125 0,0.109375 0.09375,0.109375 0.28125,0.109375 0.015625,0 0.203125,0 0.375,0.015625 0.171875,0.03125 0.265625,0.03125 0.265625,0.171875 0,0.03125 0,0.0625 -0.03125,0.1875 L 1.5625,-0.78125 c -0.09375,0.390625 -0.109375,0.46875 -0.90625,0.46875 -0.171875,0 -0.265625,0 -0.265625,0.203125 C 0.390625,0 0.484375,0 0.65625,0 h 4.625 C 5.515625,0 5.515625,0 5.578125,-0.171875 L 6.375,-2.328125 c 0.03125,-0.109375 0.03125,-0.125 0.03125,-0.140625 0,-0.03125 -0.03125,-0.109375 -0.109375,-0.109375 -0.09375,0 -0.109375,0.0625 -0.171875,0.21875 -0.34375,0.90625 -0.78125,2.046875 -2.5,2.046875 H 2.6875 c -0.140625,0 -0.171875,0 -0.21875,0 -0.109375,-0.015625 -0.140625,-0.03125 -0.140625,-0.109375 0,-0.03125 0,-0.046875 0.046875,-0.21875 z m 0,0"
               id="id-d02e4f34-640f-4a08-aecd-a07fce847481" />
          </g>
        </g>
      </g>
    </g>
    <g
       transform="matrix(0.599723,0,0,0.599723,118.981,34.060734)"
       ns1:version="1.8.2"
       ns1:texconverter="pdflatex"
       ns1:pdfconverter="inkscape"
       ns1:text="$a$"
       ns1:preamble="/home/bleyerj/texmf/tex/latex/mystyle/mystyle.sty"
       ns1:scale="1.7"
       ns1:alignment="middle center"
       ns1:stroke-to-path="0"
       ns1:jacobian_sqrt="0.599723"
       id="g5448">
      <defs
         id="id-8d424937-a5bc-44f9-981e-30711a955cba">
        <g
           id="id-09fd899e-c6a3-452c-8c24-e739e94ea72a">
          <symbol
             overflow="visible"
             id="id-c2069e43-8875-40b3-8033-425427830e56">
            <path
               style="stroke:none"
               d=""
               id="id-e12081c8-5e10-421d-a06e-2fb506b44964" />
          </symbol>
          <symbol
             overflow="visible"
             id="id-3f2fddcc-5ae9-4136-b21d-3fd8961fdd63">
            <path
               style="stroke:none"
               d="M 3.71875,-3.765625 C 3.53125,-4.140625 3.25,-4.40625 2.796875,-4.40625 c -1.15625,0 -2.390625,1.46875 -2.390625,2.921875 0,0.9375 0.546875,1.59375 1.3125,1.59375 0.203125,0 0.703125,-0.046875 1.296875,-0.75 0.078125,0.421875 0.4375,0.75 0.90625,0.75 0.359375,0 0.578125,-0.234375 0.75,-0.546875 0.15625,-0.359375 0.296875,-0.96875 0.296875,-0.984375 0,-0.109375 -0.09375,-0.109375 -0.125,-0.109375 -0.09375,0 -0.109375,0.046875 -0.140625,0.1875 -0.171875,0.640625 -0.34375,1.234375 -0.75,1.234375 -0.28125,0 -0.296875,-0.265625 -0.296875,-0.453125 0,-0.21875 0.015625,-0.3125 0.125,-0.75 C 3.890625,-1.71875 3.90625,-1.828125 4,-2.203125 L 4.359375,-3.59375 c 0.0625,-0.28125 0.0625,-0.296875 0.0625,-0.34375 0,-0.171875 -0.109375,-0.265625 -0.28125,-0.265625 -0.25,0 -0.390625,0.21875 -0.421875,0.4375 z M 3.078125,-1.1875 C 3.015625,-1 3.015625,-0.984375 2.875,-0.8125 2.4375,-0.265625 2.03125,-0.109375 1.75,-0.109375 c -0.5,0 -0.640625,-0.546875 -0.640625,-0.9375 0,-0.5 0.3125,-1.71875 0.546875,-2.1875 0.3125,-0.578125 0.75,-0.953125 1.15625,-0.953125 0.640625,0 0.78125,0.8125 0.78125,0.875 0,0.0625 -0.015625,0.125 -0.03125,0.171875 z m 0,0"
               id="id-3c8c493b-25fa-4926-88e6-569f338e90a8" />
          </symbol>
        </g>
      </defs>
      <g
         id="id-a5be681a-75ce-4d78-a932-974a8fa0e763"
         transform="translate(-149.118,-130.359)">
        <g
           style="fill:#000000;fill-opacity:1"
           id="id-ccf41121-e611-4364-9940-f51dd7926c34">
          <g
             transform="translate(148.712,134.765)"
             id="g5758">
            <path
               style="stroke:none"
               d="M 3.71875,-3.765625 C 3.53125,-4.140625 3.25,-4.40625 2.796875,-4.40625 c -1.15625,0 -2.390625,1.46875 -2.390625,2.921875 0,0.9375 0.546875,1.59375 1.3125,1.59375 0.203125,0 0.703125,-0.046875 1.296875,-0.75 0.078125,0.421875 0.4375,0.75 0.90625,0.75 0.359375,0 0.578125,-0.234375 0.75,-0.546875 0.15625,-0.359375 0.296875,-0.96875 0.296875,-0.984375 0,-0.109375 -0.09375,-0.109375 -0.125,-0.109375 -0.09375,0 -0.109375,0.046875 -0.140625,0.1875 -0.171875,0.640625 -0.34375,1.234375 -0.75,1.234375 -0.28125,0 -0.296875,-0.265625 -0.296875,-0.453125 0,-0.21875 0.015625,-0.3125 0.125,-0.75 C 3.890625,-1.71875 3.90625,-1.828125 4,-2.203125 L 4.359375,-3.59375 c 0.0625,-0.28125 0.0625,-0.296875 0.0625,-0.34375 0,-0.171875 -0.109375,-0.265625 -0.28125,-0.265625 -0.25,0 -0.390625,0.21875 -0.421875,0.4375 z M 3.078125,-1.1875 C 3.015625,-1 3.015625,-0.984375 2.875,-0.8125 2.4375,-0.265625 2.03125,-0.109375 1.75,-0.109375 c -0.5,0 -0.640625,-0.546875 -0.640625,-0.9375 0,-0.5 0.3125,-1.71875 0.546875,-2.1875 0.3125,-0.578125 0.75,-0.953125 1.15625,-0.953125 0.640625,0 0.78125,0.8125 0.78125,0.875 0,0.0625 -0.015625,0.125 -0.03125,0.171875 z m 0,0"
               id="id-848b46ee-be49-4a5b-b1d6-12915caac148" />
          </g>
        </g>
      </g>
    </g>
    <rect
       style="fill:#ffffff;fill-opacity:1;stroke:#000000;stroke-width:0.344;stroke-dasharray:none;stroke-dashoffset:0"
       id="rect5852"
       width="15.798753"
       height="9.9107847"
       x="163.34227"
       y="42.100513" />
    <path
       style="fill:#000000;fill-opacity:1;stroke:#000000;stroke-width:0.244;stroke-dasharray:none;stroke-dashoffset:0;marker-start:url(#Arrow1);marker-end:url(#Arrow1)"
       d="m 163.5054,54.907752 h 15.47249"
       id="path5854"
       sodipodi:nodetypes="cc" />
    <path
       style="fill:#000000;fill-opacity:1;stroke:#000000;stroke-width:0.232541;stroke-dasharray:none;stroke-dashoffset:0;marker-start:url(#Arrow1);marker-end:url(#Arrow1)"
       d="M 182.96802,42.746968 V 51.53682"
       id="path5880"
       sodipodi:nodetypes="cc" />
    <g
       transform="matrix(0.599723,0,0,0.599723,171.23476,56.643246)"
       ns1:version="1.8.2"
       ns1:texconverter="pdflatex"
       ns1:pdfconverter="inkscape"
       ns1:text="$b$"
       ns1:preamble="/home/bleyerj/texmf/tex/latex/mystyle/mystyle.sty"
       ns1:scale="1.7"
       ns1:alignment="middle center"
       ns1:stroke-to-path="0"
       ns1:jacobian_sqrt="0.599723"
       id="g6061">
      <defs
         id="id-a1a25879-6a1b-4f60-ba1f-50c92cf9b9d8">
        <g
           id="id-eda3bdf8-81ca-4128-b3a2-3e10325059a6">
          <symbol
             overflow="visible"
             id="id-fdbc3aae-9cf0-4c77-91fb-58ad33560623">
            <path
               style="stroke:none;stroke-width:0"
               d=""
               id="id-73a32790-d8bd-4069-bffe-1ebe240cb42a" />
          </symbol>
          <symbol
             overflow="visible"
             id="id-3af7c82f-f143-41ae-9763-101168b799fb">
            <path
               style="stroke:none;stroke-width:0"
               d="m 2.375,-6.8125 c 0,0 0,-0.109375 -0.125,-0.109375 -0.21875,0 -0.953125,0.078125 -1.21875,0.109375 -0.078125,0 -0.1875,0.015625 -0.1875,0.1875 0,0.125 0.09375,0.125 0.25,0.125 0.46875,0 0.484375,0.0625 0.484375,0.171875 0,0.0625 -0.078125,0.40625 -0.125,0.609375 l -0.828125,3.25 c -0.109375,0.5 -0.15625,0.671875 -0.15625,1.015625 0,0.9375 0.53125,1.5625 1.265625,1.5625 1.171875,0 2.40625,-1.484375 2.40625,-2.921875 0,-0.90625 -0.53125,-1.59375 -1.328125,-1.59375 -0.453125,0 -0.875,0.296875 -1.171875,0.59375 z M 1.453125,-3.046875 C 1.5,-3.265625 1.5,-3.28125 1.59375,-3.390625 2.078125,-4.03125 2.53125,-4.1875 2.796875,-4.1875 c 0.359375,0 0.625,0.296875 0.625,0.9375 0,0.59375 -0.328125,1.734375 -0.515625,2.109375 -0.328125,0.671875 -0.78125,1.03125 -1.171875,1.03125 -0.34375,0 -0.671875,-0.265625 -0.671875,-1 0,-0.203125 0,-0.390625 0.15625,-1.015625 z m 0,0"
               id="id-41979683-aefa-40e2-b1ff-c7d9b6b32ee9" />
          </symbol>
        </g>
      </defs>
      <g
         id="id-2227c695-4313-474c-9984-850a87ed2830"
         transform="translate(-149.181,-127.843)">
        <g
           style="fill:#000000;fill-opacity:1"
           id="id-d8a06a53-d33d-40c0-b0dc-11916a262329">
          <g
             transform="translate(148.712,134.765)"
             id="g6057">
            <path
               style="stroke:none;stroke-width:0"
               d="m 2.375,-6.8125 c 0,0 0,-0.109375 -0.125,-0.109375 -0.21875,0 -0.953125,0.078125 -1.21875,0.109375 -0.078125,0 -0.1875,0.015625 -0.1875,0.1875 0,0.125 0.09375,0.125 0.25,0.125 0.46875,0 0.484375,0.0625 0.484375,0.171875 0,0.0625 -0.078125,0.40625 -0.125,0.609375 l -0.828125,3.25 c -0.109375,0.5 -0.15625,0.671875 -0.15625,1.015625 0,0.9375 0.53125,1.5625 1.265625,1.5625 1.171875,0 2.40625,-1.484375 2.40625,-2.921875 0,-0.90625 -0.53125,-1.59375 -1.328125,-1.59375 -0.453125,0 -0.875,0.296875 -1.171875,0.59375 z M 1.453125,-3.046875 C 1.5,-3.265625 1.5,-3.28125 1.59375,-3.390625 2.078125,-4.03125 2.53125,-4.1875 2.796875,-4.1875 c 0.359375,0 0.625,0.296875 0.625,0.9375 0,0.59375 -0.328125,1.734375 -0.515625,2.109375 -0.328125,0.671875 -0.78125,1.03125 -1.171875,1.03125 -0.34375,0 -0.671875,-0.265625 -0.671875,-1 0,-0.203125 0,-0.390625 0.15625,-1.015625 z m 0,0"
               id="id-659f4f44-8a77-4740-b6d2-736cd346919a" />
          </g>
        </g>
      </g>
    </g>
    <g
       transform="matrix(0.599723,0,0,0.599723,186.28868,44.6896)"
       ns1:version="1.8.2"
       ns1:texconverter="pdflatex"
       ns1:pdfconverter="inkscape"
       ns1:text="$2h$"
       ns1:preamble="/home/bleyerj/texmf/tex/latex/mystyle/mystyle.sty"
       ns1:scale="1.7"
       ns1:alignment="middle center"
       ns1:stroke-to-path="0"
       ns1:jacobian_sqrt="0.599723"
       id="g6124">
      <defs
         id="id-0eb279a7-c017-4bf9-9d3d-81e8360c3254">
        <g
           id="id-bad2d38d-2752-4976-9f63-7d68629ba296">
          <symbol
             overflow="visible"
             id="id-fe067daf-ce1d-4cc6-b6dc-6056084b88da">
            <path
               style="stroke:none"
               d=""
               id="id-a55cb5e7-3103-4ca0-8a6d-80d22b555858" />
          </symbol>
          <symbol
             overflow="visible"
             id="id-1484277e-0cc2-439d-991b-ae399bf85889">
            <path
               style="stroke:none"
               d="m 1.265625,-0.765625 1.0625,-1.03125 c 1.546875,-1.375 2.140625,-1.90625 2.140625,-2.90625 0,-1.140625 -0.890625,-1.9375 -2.109375,-1.9375 -1.125,0 -1.859375,0.921875 -1.859375,1.8125 0,0.546875 0.5,0.546875 0.53125,0.546875 0.171875,0 0.515625,-0.109375 0.515625,-0.53125 0,-0.25 -0.1875,-0.515625 -0.53125,-0.515625 -0.078125,0 -0.09375,0 -0.125,0.015625 0.21875,-0.65625 0.765625,-1.015625 1.34375,-1.015625 0.90625,0 1.328125,0.8125 1.328125,1.625 C 3.5625,-3.90625 3.078125,-3.125 2.515625,-2.5 l -1.90625,2.125 C 0.5,-0.265625 0.5,-0.234375 0.5,0 H 4.203125 L 4.46875,-1.734375 H 4.234375 C 4.171875,-1.4375 4.109375,-1 4,-0.84375 3.9375,-0.765625 3.28125,-0.765625 3.0625,-0.765625 Z m 0,0"
               id="id-1457cc12-253e-4fe8-b423-ab38f19bc09d" />
          </symbol>
          <symbol
             overflow="visible"
             id="id-bb92c8a2-e485-4eac-80ac-d8d22392c49c">
            <path
               style="stroke:none"
               d=""
               id="id-2c36b291-0b8e-46a8-9aa4-cc61781c064e" />
          </symbol>
          <symbol
             overflow="visible"
             id="id-b9092572-062c-4297-bc98-238983d20c96">
            <path
               style="stroke:none"
               d="m 2.859375,-6.8125 c 0,0 0,-0.109375 -0.125,-0.109375 -0.234375,0 -0.953125,0.078125 -1.21875,0.109375 -0.078125,0 -0.1875,0.015625 -0.1875,0.1875 0,0.125 0.09375,0.125 0.234375,0.125 0.484375,0 0.5,0.0625 0.5,0.171875 L 2.03125,-6.125 0.59375,-0.390625 c -0.046875,0.140625 -0.046875,0.15625 -0.046875,0.21875 0,0.234375 0.203125,0.28125 0.296875,0.28125 0.15625,0 0.3125,-0.125 0.359375,-0.265625 l 0.1875,-0.75 0.21875,-0.890625 C 1.671875,-2.03125 1.734375,-2.25 1.78125,-2.46875 1.796875,-2.53125 1.890625,-2.859375 1.890625,-2.921875 1.921875,-3.015625 2.234375,-3.5625 2.578125,-3.84375 2.796875,-4 3.09375,-4.1875 3.53125,-4.1875 c 0.421875,0 0.53125,0.34375 0.53125,0.703125 0,0.53125 -0.375,1.625 -0.609375,2.234375 C 3.375,-1.03125 3.3125,-0.90625 3.3125,-0.703125 c 0,0.46875 0.359375,0.8125 0.828125,0.8125 0.9375,0 1.296875,-1.453125 1.296875,-1.53125 0,-0.109375 -0.078125,-0.109375 -0.109375,-0.109375 -0.109375,0 -0.109375,0.03125 -0.15625,0.1875 -0.140625,0.53125 -0.46875,1.234375 -1.015625,1.234375 -0.171875,0 -0.234375,-0.09375 -0.234375,-0.328125 0,-0.25 0.078125,-0.484375 0.171875,-0.703125 0.15625,-0.4375 0.609375,-1.625 0.609375,-2.203125 0,-0.640625 -0.390625,-1.0625 -1.140625,-1.0625 -0.625,0 -1.109375,0.3125 -1.484375,0.765625 z m 0,0"
               id="id-2ab006a0-5ccf-450c-8ba3-bf6cd1ea3ce7" />
          </symbol>
        </g>
      </defs>
      <g
         id="id-d7914322-2218-4881-aa0b-aeb50e63928d"
         transform="translate(-149.212,-127.843)">
        <g
           style="fill:#000000;fill-opacity:1"
           id="id-75a733f7-46d2-4847-b8bb-8256c76a8f57">
          <g
             transform="translate(148.712,134.765)"
             id="g6302">
            <path
               style="stroke:none"
               d="m 1.265625,-0.765625 1.0625,-1.03125 c 1.546875,-1.375 2.140625,-1.90625 2.140625,-2.90625 0,-1.140625 -0.890625,-1.9375 -2.109375,-1.9375 -1.125,0 -1.859375,0.921875 -1.859375,1.8125 0,0.546875 0.5,0.546875 0.53125,0.546875 0.171875,0 0.515625,-0.109375 0.515625,-0.53125 0,-0.25 -0.1875,-0.515625 -0.53125,-0.515625 -0.078125,0 -0.09375,0 -0.125,0.015625 0.21875,-0.65625 0.765625,-1.015625 1.34375,-1.015625 0.90625,0 1.328125,0.8125 1.328125,1.625 C 3.5625,-3.90625 3.078125,-3.125 2.515625,-2.5 l -1.90625,2.125 C 0.5,-0.265625 0.5,-0.234375 0.5,0 H 4.203125 L 4.46875,-1.734375 H 4.234375 C 4.171875,-1.4375 4.109375,-1 4,-0.84375 3.9375,-0.765625 3.28125,-0.765625 3.0625,-0.765625 Z m 0,0"
               id="id-2b351995-603c-410d-a5f5-283884869eed" />
          </g>
        </g>
        <g
           style="fill:#000000;fill-opacity:1"
           id="id-dae6f458-dc86-4eb1-8c0a-227cfe8bd7ee">
          <g
             transform="translate(153.694,134.765)"
             id="g6306">
            <path
               style="stroke:none"
               d="m 2.859375,-6.8125 c 0,0 0,-0.109375 -0.125,-0.109375 -0.234375,0 -0.953125,0.078125 -1.21875,0.109375 -0.078125,0 -0.1875,0.015625 -0.1875,0.1875 0,0.125 0.09375,0.125 0.234375,0.125 0.484375,0 0.5,0.0625 0.5,0.171875 L 2.03125,-6.125 0.59375,-0.390625 c -0.046875,0.140625 -0.046875,0.15625 -0.046875,0.21875 0,0.234375 0.203125,0.28125 0.296875,0.28125 0.15625,0 0.3125,-0.125 0.359375,-0.265625 l 0.1875,-0.75 0.21875,-0.890625 C 1.671875,-2.03125 1.734375,-2.25 1.78125,-2.46875 1.796875,-2.53125 1.890625,-2.859375 1.890625,-2.921875 1.921875,-3.015625 2.234375,-3.5625 2.578125,-3.84375 2.796875,-4 3.09375,-4.1875 3.53125,-4.1875 c 0.421875,0 0.53125,0.34375 0.53125,0.703125 0,0.53125 -0.375,1.625 -0.609375,2.234375 C 3.375,-1.03125 3.3125,-0.90625 3.3125,-0.703125 c 0,0.46875 0.359375,0.8125 0.828125,0.8125 0.9375,0 1.296875,-1.453125 1.296875,-1.53125 0,-0.109375 -0.078125,-0.109375 -0.109375,-0.109375 -0.109375,0 -0.109375,0.03125 -0.15625,0.1875 -0.140625,0.53125 -0.46875,1.234375 -1.015625,1.234375 -0.171875,0 -0.234375,-0.09375 -0.234375,-0.328125 0,-0.25 0.078125,-0.484375 0.171875,-0.703125 0.15625,-0.4375 0.609375,-1.625 0.609375,-2.203125 0,-0.640625 -0.390625,-1.0625 -1.140625,-1.0625 -0.625,0 -1.109375,0.3125 -1.484375,0.765625 z m 0,0"
               id="id-461a75bd-830b-42c4-8f68-b89f64a19ddf" />
          </g>
        </g>
      </g>
    </g>
  </g>
</svg>
